<svg xmlns="http://www.w3.org/2000/svg" version="1.1" style="font-family:Lato, &#x27;Helvetica Neue&#x27;, Helvetica, Arial, &#x27;Liberation Sans&#x27;, sans-serif;font-size:18px;background-color:white;text-rendering:geometricPrecision;-webkit-font-smoothing:antialiased;overflow:visible" width="850" height="600" viewBox="0 0 850 600"><defs><pattern id="noDataPattern" patternUnits="userSpaceOnUse" width="4" height="4" patternTransform="rotate(-45 2 2)"><path d="M -1,2 l 6,0" stroke="#ccc" stroke-width="0.7"></path></pattern></defs><rect class="background-fill" fill="white" width="850" height="600"></rect><g class="HeaderView"><g transform="translate(768, 16) scale(0.9)"><svg className="owidLogo" xmlns="http://www.w3.org/2000/svg" width="73" height="40" viewBox="0 0 73 40" fill="none"><path fill="#002147" d="M0 0h72v40H0z"/><path fill="#CE261E" d="M0 37h72v3H0z"/><path fill="#fff" d="M16.96 11.977c0 .654-.105 1.254-.316 1.802a4.141 4.141 0 0 1-.883 1.412c-.381.394-.838.7-1.37.92a4.605 4.605 0 0 1-1.77.328c-.646 0-1.236-.11-1.772-.329a4.01 4.01 0 0 1-1.37-.919 4.27 4.27 0 0 1-.882-1.412 4.972 4.972 0 0 1-.317-1.802c0-.649.106-1.247.317-1.795a4.19 4.19 0 0 1 .882-1.412 3.969 3.969 0 0 1 1.37-.926 4.562 4.562 0 0 1 1.771-.334c.65 0 1.24.111 1.772.334.531.22.988.528 1.37.926.38.393.675.864.882 1.412.21.548.316 1.146.316 1.795Zm-1.327 0a4.3 4.3 0 0 0-.213-1.4 2.96 2.96 0 0 0-.608-1.053 2.592 2.592 0 0 0-.95-.663 3.194 3.194 0 0 0-1.242-.231 3.24 3.24 0 0 0-1.247.23c-.37.155-.686.376-.95.664-.264.288-.467.64-.609 1.053-.142.414-.213.881-.213 1.4 0 .524.071.993.213 1.406.142.41.345.76.609 1.047.264.289.58.51.95.664.373.15.789.225 1.247.225a3.27 3.27 0 0 0 1.242-.225 2.59 2.59 0 0 0 .95-.664c.263-.288.466-.637.608-1.046a4.32 4.32 0 0 0 .213-1.407Zm7.76-1.813v6.184h-.712c-.162 0-.268-.08-.316-.238l-.086-.62a4.181 4.181 0 0 1-.42.39c-.146.117-.302.218-.468.303a2.565 2.565 0 0 1-.53.19 2.38 2.38 0 0 1-.602.072 2.23 2.23 0 0 1-.901-.17 1.803 1.803 0 0 1-.646-.475 2.101 2.101 0 0 1-.395-.743 3.218 3.218 0 0 1-.134-.955v-3.938h1.193v3.938c0 .442.101.787.304 1.034.203.244.514.366.932.366.304 0 .588-.071.852-.213.264-.146.511-.345.742-.597v-4.528h1.187Zm2.777 1.186c.199-.405.438-.724.718-.955.28-.231.617-.347 1.01-.347.135 0 .26.016.378.049a.932.932 0 0 1 .317.133l-.08.895c-.028.11-.095.165-.2.165a1.6 1.6 0 0 1-.256-.03 1.744 1.744 0 0 0-.365-.037c-.19 0-.36.028-.505.085a1.15 1.15 0 0 0-.396.243 1.622 1.622 0 0 0-.304.396 3.81 3.81 0 0 0-.25.53v3.87H25.05v-6.184h.682c.13 0 .217.025.262.073.048.045.083.126.103.244l.073.87Zm17.67-3.743-2.727 8.74h-1.169l-2.13-6.482a3.055 3.055 0 0 1-.128-.468 6.471 6.471 0 0 1-.128.468l-2.155 6.483h-1.162l-2.727-8.741h1.083a.47.47 0 0 1 .286.085.37.37 0 0 1 .152.22l1.723 5.849c.032.114.06.237.085.371.029.134.057.274.085.42.029-.146.057-.286.086-.42.032-.134.069-.258.11-.371l1.971-5.85a.427.427 0 0 1 .153-.213.464.464 0 0 1 .286-.091h.371a.443.443 0 0 1 .438.304l1.966 5.85c.073.223.138.477.195.76.049-.28.102-.533.158-.76l1.73-5.85a.383.383 0 0 1 .151-.213.464.464 0 0 1 .286-.091h1.01Zm2.927 2.46c.454 0 .864.074 1.23.224.369.146.681.36.937.64.26.275.459.61.597 1.004.137.39.206.828.206 1.315 0 .486-.069.927-.206 1.32a2.79 2.79 0 0 1-.597 1.005 2.585 2.585 0 0 1-.938.639c-.365.146-.775.22-1.229.22a3.35 3.35 0 0 1-1.242-.22 2.657 2.657 0 0 1-.937-.64c-.26-.275-.46-.61-.603-1.004a3.976 3.976 0 0 1-.207-1.32c0-.487.07-.926.207-1.315.142-.394.343-.729.603-1.005.26-.28.572-.493.937-.639.37-.15.783-.225 1.242-.225Zm0 5.44c.584 0 1.02-.196 1.309-.59.288-.393.432-.947.432-1.661 0-.715-.144-1.268-.432-1.662-.288-.398-.725-.597-1.309-.597-.593 0-1.035.2-1.327.597-.288.394-.432.947-.432 1.662 0 .714.144 1.268.432 1.661.292.394.735.59 1.327.59Zm5.415-4.157c.2-.405.439-.724.719-.955.28-.231.616-.347 1.01-.347.134 0 .26.016.377.049a.934.934 0 0 1 .317.133l-.08.895c-.027.11-.094.165-.2.165-.057 0-.142-.01-.256-.03a1.744 1.744 0 0 0-.365-.037c-.19 0-.359.028-.505.085a1.15 1.15 0 0 0-.396.243 1.621 1.621 0 0 0-.304.396c-.09.154-.173.33-.25.53v3.87h-1.187v-6.184h.682c.13 0 .217.025.262.073.049.045.083.126.103.244l.073.87Zm4.556-3.987v8.985h-1.193V7.363h1.193Zm5.682 4.298c-.195-.256-.406-.434-.633-.536a1.805 1.805 0 0 0-.755-.152c-.543 0-.965.197-1.266.59-.296.39-.444.96-.444 1.71 0 .395.032.731.097 1.011.07.276.167.503.293.682.13.175.288.304.474.39.187.08.398.121.633.121.345 0 .644-.077.895-.23.252-.155.487-.372.706-.652V11.66Zm1.193-4.298v8.985h-.718c-.166 0-.27-.08-.31-.238l-.104-.712a3.31 3.31 0 0 1-.9.755c-.334.187-.719.28-1.157.28-.353 0-.674-.069-.962-.207a2.037 2.037 0 0 1-.73-.602 2.923 2.923 0 0 1-.47-.993 5.075 5.075 0 0 1-.163-1.357c0-.459.06-.885.182-1.278.122-.394.298-.735.53-1.023.231-.288.511-.513.84-.676.328-.166.7-.25 1.114-.25.373 0 .69.062.95.183.263.122.498.295.705.518V7.363h1.193Zm-44.668 15.8v6.185h-1.187v-6.184h1.187Zm.225-1.91c0 .109-.022.214-.067.316a.85.85 0 0 1-.444.438.846.846 0 0 1-.627 0 .96.96 0 0 1-.262-.177.958.958 0 0 1-.177-.261.844.844 0 0 1 0-.633.85.85 0 0 1 .177-.262.806.806 0 0 1 .262-.177.778.778 0 0 1 .627 0c.101.041.188.1.261.177a.801.801 0 0 1 .25.578Zm2.607 2.769c.134-.142.274-.272.42-.39a2.564 2.564 0 0 1 .992-.493c.191-.049.394-.073.609-.073.34 0 .64.057.895.17.26.114.477.274.651.481.175.203.306.449.396.737.089.288.134.607.134.956v3.938H24.68V25.41c0-.443-.102-.786-.305-1.03-.203-.247-.513-.37-.931-.37-.304 0-.59.073-.858.219-.264.142-.51.337-.737.584v4.535h-1.187v-6.184h.712c.167 0 .27.079.31.237l.092.62Zm16.648.955c0 .654-.105 1.248-.316 1.784a3.976 3.976 0 0 1-.883 1.382 3.995 3.995 0 0 1-1.37.888 4.763 4.763 0 0 1-1.771.317h-3.287v-8.741h3.287c.65 0 1.24.105 1.771.317.532.21.988.509 1.37.894.381.382.675.842.883 1.382a4.81 4.81 0 0 1 .316 1.777Zm-1.327 0c0-.519-.071-.984-.213-1.393a2.896 2.896 0 0 0-.609-1.047 2.53 2.53 0 0 0-.95-.658 3.271 3.271 0 0 0-1.241-.225h-1.984V28.3h1.984c.459 0 .872-.075 1.242-.225.373-.15.69-.368.95-.652.263-.288.466-.637.608-1.047.142-.41.213-.876.213-1.4Zm5.887 1.626a8.699 8.699 0 0 0-1.23.115c-.337.057-.61.134-.822.232-.21.097-.363.213-.456.347a.733.733 0 0 0-.14.438c0 .154.024.288.073.402.053.11.122.2.207.273.09.07.193.12.31.153.118.032.246.048.384.048a2.108 2.108 0 0 0 .931-.207c.134-.069.262-.152.384-.25.121-.097.241-.208.359-.334v-1.217Zm-3.482-2.575a3.55 3.55 0 0 1 1.12-.737c.406-.162.85-.243 1.333-.243.353 0 .665.059.937.176.272.114.502.274.688.481.187.207.327.455.42.743.098.288.146.607.146.956v3.944h-.53a.529.529 0 0 1-.267-.055.416.416 0 0 1-.146-.22l-.128-.54a5.553 5.553 0 0 1-.469.389c-.154.11-.316.205-.487.286a2.513 2.513 0 0 1-.535.176c-.191.04-.402.061-.633.061-.244 0-.473-.032-.688-.097a1.484 1.484 0 0 1-.931-.828 1.816 1.816 0 0 1-.134-.724c0-.244.065-.477.194-.7.134-.228.35-.43.646-.609.3-.179.69-.325 1.168-.438.483-.114 1.076-.179 1.778-.195v-.45c0-.467-.1-.816-.299-1.047-.198-.232-.49-.347-.876-.347-.26 0-.479.032-.657.097a2.511 2.511 0 0 0-.457.22c-.126.076-.237.147-.335.212a.504.504 0 0 1-.292.098.35.35 0 0 1-.213-.067.579.579 0 0 1-.14-.159l-.213-.383Zm8.086 5.417c-.5 0-.885-.14-1.157-.42-.268-.28-.401-.68-.401-1.199v-3.7h-.719a.267.267 0 0 1-.176-.062c-.045-.044-.067-.11-.067-.194v-.481l1.004-.14.268-1.845a.28.28 0 0 1 .091-.158c.049-.04.11-.06.183-.06h.602v2.075h1.754v.864h-1.754v3.622c0 .243.06.426.177.548a.639.639 0 0 0 .462.176c.11 0 .203-.014.28-.042.082-.029.15-.06.207-.092.057-.036.106-.069.147-.097a.198.198 0 0 1 .11-.043c.04 0 .07.01.09.03a.265.265 0 0 1 .074.086l.352.572a2.047 2.047 0 0 1-.693.414 2.421 2.421 0 0 1-.834.146Zm5.798-2.842a8.7 8.7 0 0 0-1.23.115c-.336.057-.61.134-.821.232-.211.097-.363.213-.457.347a.733.733 0 0 0-.14.438c0 .154.025.288.073.402.053.11.122.2.207.273.09.07.193.12.31.153.118.032.246.048.384.048a2.108 2.108 0 0 0 .932-.207c.133-.069.261-.152.383-.25.122-.097.242-.208.36-.334v-1.217Zm-3.481-2.575a3.547 3.547 0 0 1 1.12-.737c.405-.162.85-.243 1.332-.243.354 0 .666.059.938.176.272.114.501.274.688.481.186.207.326.455.42.743.097.288.146.607.146.956v3.944h-.53a.529.529 0 0 1-.268-.055.417.417 0 0 1-.146-.22l-.128-.54a5.537 5.537 0 0 1-.468.389c-.154.11-.317.205-.487.286a2.516 2.516 0 0 1-.536.176c-.19.04-.401.061-.633.061-.243 0-.473-.032-.688-.097a1.487 1.487 0 0 1-.931-.828 1.818 1.818 0 0 1-.134-.724c0-.244.065-.477.195-.7.134-.228.349-.43.645-.609.3-.179.69-.325 1.169-.438.483-.114 1.075-.179 1.777-.195v-.45c0-.467-.1-.816-.298-1.047-.199-.232-.491-.347-.877-.347-.26 0-.478.032-.657.097a2.515 2.515 0 0 0-.456.22c-.126.076-.238.147-.335.212a.504.504 0 0 1-.292.098.35.35 0 0 1-.214-.067.579.579 0 0 1-.14-.159l-.212-.383Z"/></svg></g><a href="http://localhost:3030/grapher/global-change-over-the-last-50-years" style="font-family:&#x27;Playfair Display&#x27;, Georgia, &#x27;Times New Roman&#x27;, &#x27;Liberation Serif&#x27;, serif" target="_blank" rel="noopener"><text font-size="22.50" x="16.0" y="37.8" fill="#4E4E4E"><tspan x="16" y="37.825">How have things changed?, World</tspan></text></a><text x="16.0" y="61.0" style="font-size:14.4px;line-height:1.2" fill="#4E4E4E"><tspan x="16" y="61.0">Change captured by a range of socioeconomic and environmental indicators, measured relative to the first year.</tspan></text></g><g class="LineChart"><defs><clipPath id="boundsClip-1"><rect x="62.03" y="70.28" width="838" height="459.17"></rect></clipPath></defs><rect x="16" y="80.28" width="818" height="439.17" fill="transparent"></rect><g class="DualAxisView"><g class="HorizontalAxis"><line x1="72" y1="498.25" x2="72" y2="503.25" stroke="#999"></line><line x1="701.8" y1="498.25" x2="701.8" y2="503.25" stroke="#999"></line><line x1="240.7" y1="498.25" x2="240.7" y2="503.25" stroke="#999"></line><line x1="353.2" y1="498.25" x2="353.2" y2="503.25" stroke="#999"></line><line x1="465.6" y1="498.25" x2="465.6" y2="503.25" stroke="#999"></line><line x1="578.1" y1="498.25" x2="578.1" y2="503.25" stroke="#999"></line><text x="72.03" y="519.45" fill="#666" text-anchor="start" font-size="16.2">1965</text><text x="701.8" y="519.45" fill="#666" text-anchor="end" font-size="16.2">2021</text><text x="240.7" y="519.45" fill="#666" text-anchor="middle" font-size="16.2">1980</text><text x="353.2" y="519.45" fill="#666" text-anchor="middle" font-size="16.2">1990</text><text x="465.6" y="519.45" fill="#666" text-anchor="middle" font-size="16.2">2000</text><text x="578.1" y="519.45" fill="#666" text-anchor="middle" font-size="16.2">2010</text></g><g class="VerticalAxis"><text x="67.03" y="498.1" dy=".32em" text-anchor="end" fill="#666" font-size="16.2">+0%</text><text x="67.03" y="434.7" dy=".32em" text-anchor="end" fill="#666" font-size="16.2">+50%</text><text x="67.03" y="371.3" dy=".32em" text-anchor="end" fill="#666" font-size="16.2">+100%</text><text x="67.03" y="307.9" dy=".32em" text-anchor="end" fill="#666" font-size="16.2">+150%</text><text x="67.03" y="244.5" dy=".32em" text-anchor="end" fill="#666" font-size="16.2">+200%</text><text x="67.03" y="181.1" dy=".32em" text-anchor="end" fill="#666" font-size="16.2">+250%</text><text x="67.03" y="117.6" dy=".32em" text-anchor="end" fill="#666" font-size="16.2">+300%</text></g><g class="AxisGridLines horizontalLines"><line x1="72.03" y1="498.1" x2="701.80" y2="498.1" stroke="#999"></line><line x1="72.03" y1="434.7" x2="701.80" y2="434.7" stroke="#ddd" stroke-dasharray="3,2"></line><line x1="72.03" y1="371.3" x2="701.80" y2="371.3" stroke="#ddd" stroke-dasharray="3,2"></line><line x1="72.03" y1="307.9" x2="701.80" y2="307.9" stroke="#ddd" stroke-dasharray="3,2"></line><line x1="72.03" y1="244.5" x2="701.80" y2="244.5" stroke="#ddd" stroke-dasharray="3,2"></line><line x1="72.03" y1="181.1" x2="701.80" y2="181.1" stroke="#ddd" stroke-dasharray="3,2"></line><line x1="72.03" y1="117.6" x2="701.80" y2="117.6" stroke="#ddd" stroke-dasharray="3,2"></line></g></g><g clip-path="url(#boundsClip-1)"><g class="LineLabels" style="cursor:default"><g class="legendMark"><g class="indicator"><path d="M705.8,88.3 H723.8 V95.03 H732.8" stroke="#999" stroke-width="0.5" fill="none"></path></g><rect x="701.8" y="88.28" width="132.2" height="13.5" fill="#fff" opacity="0"></rect><text font-size="13.50" font-weight="400" x="736.8" y="100.0" fill="#996d39"><tspan x="736.8" y="100.025">Meat production</tspan></text></g><g class="legendMark"><g class="indicator"><path d="M705.8,100.4 H714.8 V110.53 H732.8" stroke="#999" stroke-width="0.5" fill="none"></path></g><rect x="701.8" y="103.78" width="59.84" height="13.5" fill="#fff" opacity="0"></rect><text font-size="13.50" font-weight="400" x="736.8" y="115.5" fill="#6d3e91"><tspan x="736.8" y="115.525">Gas</tspan></text></g><g class="legendMark"><g class="indicator"><path d="M705.8,130.7 H719.3 V127.94999999999999 H732.8" stroke="#999" stroke-width="0.5" fill="none"></path></g><rect x="701.8" y="121.19999999999999" width="96.69500000000001" height="13.5" fill="#fff" opacity="0"></rect><text font-size="13.50" font-weight="400" x="736.8" y="132.9" fill="#c15065"><tspan x="736.8" y="132.945">Fish catch</tspan></text></g><g class="legendMark"><g class="indicator"><path d="M705.8,140.7 H719.3 V143.45 H732.8" stroke="#999" stroke-width="0.5" fill="none"></path></g><rect x="701.8" y="136.7" width="103.58" height="13.5" fill="#fff" opacity="0"></rect><text font-size="13.50" font-weight="400" x="736.8" y="148.4" fill="#18470f"><tspan x="736.8" y="148.445">Energy use</tspan></text></g><g class="legendMark"><g class="indicator"><path d="M705.8,208.9 H719.3 V208.9 H732.8" stroke="#999" stroke-width="0.5" fill="none"></path></g><rect x="701.8" y="202.15" width="125.855" height="13.5" fill="#fff" opacity="0"></rect><text font-size="13.50" font-weight="400" x="736.8" y="213.9" fill="#008291"><tspan x="736.8" y="213.895">CO₂ emissions</tspan></text></g><g class="legendMark"><g class="indicator"><path d="M705.8,239.4 H719.3 V239.4 H732.8" stroke="#999" stroke-width="0.5" fill="none"></path></g><rect x="701.8" y="232.65" width="119.915" height="13.5" fill="#fff" opacity="0"></rect><text font-size="13.50" font-weight="400" x="736.8" y="244.4" fill="#00295b"><tspan x="736.8" y="244.395">Caloric supply</tspan></text></g><g class="legendMark"><g class="indicator"><path d="M705.8,273.1 H719.3 V270.5 H732.8" stroke="#999" stroke-width="0.5" fill="none"></path></g><rect x="701.8" y="263.75" width="106.415" height="13.5" fill="#fff" opacity="0"></rect><text font-size="13.50" font-weight="400" x="736.8" y="275.5" fill="#a2559c"><tspan x="736.8" y="275.495">Cereal yield</tspan></text></g><g class="legendMark"><g class="indicator"><path d="M705.8,283.4 H719.3 V286 H732.8" stroke="#999" stroke-width="0.5" fill="none"></path></g><rect x="701.8" y="279.25" width="118.56500000000001" height="13.5" fill="#fff" opacity="0"></rect><text font-size="13.50" font-weight="400" x="736.8" y="291.0" fill="#c4523e"><tspan x="736.8" y="290.995">Oil production</tspan></text></g><g class="legendMark"><g class="indicator"><path d="M705.8,300.8 H719.3 V300.8 H732.8" stroke="#999" stroke-width="0.5" fill="none"></path></g><rect x="701.8" y="294.05" width="127.61" height="13.5" fill="#fff" opacity="0"></rect><text font-size="13.50" font-weight="400" x="736.8" y="305.8" fill="#286bbb"><tspan x="736.8" y="305.795">GDP per capita</tspan></text></g><g class="legendMark"><g class="indicator"><path d="M705.8,324.4 H719.3 V324.4 H732.8" stroke="#999" stroke-width="0.5" fill="none"></path></g><rect x="701.8" y="317.65" width="99.125" height="13.5" fill="#fff" opacity="0"></rect><text font-size="13.50" font-weight="400" x="736.8" y="329.4" fill="#be5915"><tspan x="736.8" y="329.395">Population</tspan></text></g><g class="legendMark"><g class="indicator"><path d="M705.8,349.7 H719.3 V349.7 H732.8" stroke="#999" stroke-width="0.5" fill="none"></path></g><rect x="701.8" y="342.95" width="62.81" height="13.5" fill="#fff" opacity="0"></rect><text font-size="13.50" font-weight="400" x="736.8" y="354.7" fill="#cf0a66"><tspan x="736.8" y="354.695">Coal</tspan></text></g><g class="legendMark"><g class="indicator"><path d="M705.8,383.6 H719.3 V383.6 H732.8" stroke="#999" stroke-width="0.5" fill="none"></path></g><rect x="701.8" y="376.85" width="128.28500000000003" height="13.5" fill="#fff" opacity="0"></rect><text font-size="13.50" font-weight="400" x="736.8" y="388.6" fill="#883039"><tspan x="736.8" y="388.595">Freshwater use</tspan></text></g><g class="legendMark"><g class="indicator"><path d="M705.8,488.3 H719.3 V476 H732.8" stroke="#999" stroke-width="0.5" fill="none"></path></g><rect x="701.8" y="469.25" width="89.945" height="13.5" fill="#fff" opacity="0"></rect><text font-size="13.50" font-weight="400" x="736.8" y="481.0" fill="#2c8465"><tspan x="736.8" y="480.995">Cropland</tspan></text></g><g class="legendMark"><g class="indicator"><path d="M705.8,490.8 H719.3 V491.5 H732.8" stroke="#999" stroke-width="0.5" fill="none"></path></g><rect x="701.8" y="484.75" width="132.065" height="13.5" fill="#fff" opacity="0"></rect><text font-size="13.50" font-weight="400" x="736.8" y="496.5" fill="#9a5129"><tspan x="736.8" y="496.495">Agricultural land</tspan></text></g></g><g class="Lines"><rect x="72" y="88" width="630" height="410" fill="rgba(255,255,255,0)" opacity="0"></rect><g><path stroke-linecap="round" stroke-linejoin="round" stroke="#ddd" d="M72 498.1L83.3 492L94.5 487.8L105.8 480.3L117 470.7L128.3 458L139.5 451.2L150.8 443.1L162 433.5L173.2 434.3L184.5 433.8L195.7 423.3L207 417.6L218.2 411.2L229.5 405.1L240.7 406.4L252 411.6L263.2 413.3L274.5 412L285.7 404.6L296.9 397.2L308.2 393.8L319.4 386.6L330.7 377.2L341.9 373.8L353.2 369.9L364.4 364.5L375.7 371.9L386.9 369.3L398.2 367.6L409.4 362.1L420.7 354.2L431.9 352.6L443.1 353.6L454.4 347.8L465.6 339.7L476.9 337.3L488.1 330.4L499.4 315.1L510.6 304L521.9 293.1L533.1 282.1L544.4 271.9L555.6 265.4L566.8 271.2L578.1 251.1L589.3 238.5L600.6 232.7L611.8 229.2L623.1 226.3L634.3 226.5L645.6 226.9L656.8 220.4L668.1 212.3L679.3 209.4L690.6 229.8L701.8 208.9" fill="none" stroke-width="1"></path></g><g><path stroke-linecap="round" stroke-linejoin="round" stroke="#ddd" d="M72 498.1L83.3 488.5L94.5 484.9L105.8 481.2L117 480.2L128.3 475.4L139.5 464.6L150.8 467.5L162 460.5L173.2 464.6L184.5 462.9L195.7 453.3L207 453.3L218.2 437.5L229.5 440.6L240.7 441.8L252 434.6L263.2 424.2L274.5 429.3L285.7 413.2L296.9 410.7L308.2 408.3L319.4 409.8L330.7 416.5L341.9 402.2L353.2 391.3L364.4 397.6L375.7 389.2L386.9 392.9L398.2 385.9L409.4 390.8L420.7 375.7L431.9 371.3L443.1 365.3L454.4 361.9L465.6 365.1L476.9 359.7L488.1 361.9L499.4 362.9L510.6 338.8L521.9 348.1L533.1 344.8L544.4 339.2L555.6 325.3L566.8 323.8L578.1 324.5L589.3 315.3L600.6 318.7L611.8 301.5L623.1 295.4L634.3 292.3L645.6 285.1L656.8 279.9L668.1 283.6L679.3 275.5L690.6 276.2L701.8 273.1" fill="none" stroke-width="1"></path></g><g><path stroke-linecap="round" stroke-linejoin="round" stroke="#ddd" d="M72 498.1L83.3 487.2L94.5 477.2L105.8 463.8L117 451.5L128.3 434.1L139.5 423.2L150.8 411.7L162 392.3L173.2 391.8L184.5 403.5L195.7 384.3L207 375.9L218.2 373.7L229.5 363L240.7 374.9L252 389.3L263.2 398.6L274.5 401.5L285.7 397.1L296.9 399.1L308.2 388L319.4 387.4L330.7 377.2L341.9 374.3L353.2 369.5L364.4 370.2L375.7 366.5L386.9 366.8L398.2 363.3L409.4 359.7L420.7 352.6L431.9 346.5L443.1 339.5L454.4 346L465.6 333.8L476.9 333.9L488.1 337.4L499.4 324.6L510.6 309.6L521.9 306.9L533.1 304L544.4 304.7L555.6 301.3L566.8 309.3L578.1 303L589.3 300.5L600.6 291.7L611.8 291.1L623.1 283.3L634.3 271.8L645.6 270.6L656.8 270.1L668.1 261.9L679.3 262.7L690.6 287.5L701.8 283.4" fill="none" stroke-width="1"></path></g><g><path stroke-linecap="round" stroke-linejoin="round" stroke="#ddd" d="M72 498.1L83.3 497.9L94.5 497.6L105.8 496.6L117 496.3L128.3 496.7L139.5 496.3L150.8 496L162 495.5L173.2 495.2L184.5 495L195.7 494.9L207 494.9L218.2 494.4L229.5 494.3L240.7 493.8L252 493.8L263.2 493.3L274.5 493L285.7 492.2L296.9 491.3L308.2 491.2L319.4 490.8L330.7 490.2L341.9 489.9L353.2 489.6L364.4 489.5L375.7 488.4L386.9 488.9L398.2 488.3L409.4 488.4L420.7 488.2L431.9 487.6L443.1 487.2L454.4 487.1L465.6 487L476.9 486.9L488.1 487.3L499.4 487.7L510.6 488.8L521.9 488.6L533.1 488.7L544.4 488.9L555.6 489.3L566.8 489.4L578.1 489.4L589.3 488.8L600.6 490.2L611.8 490.4L623.1 490.5L634.3 491.2L645.6 491.2L656.8 490.2L668.1 490.6L679.3 490.6L690.6 490.8" fill="none" stroke-width="1"></path></g><g><path stroke-linecap="round" stroke-linejoin="round" stroke="#ddd" d="M72 498.1L83.3 494.6L94.5 491.7L105.8 488.7L117 485.3L128.3 479.6L139.5 478.1L150.8 476L162 470.7L173.2 468.2L184.5 464.3L195.7 461.8L207 456.9L218.2 449.8L229.5 446.8L240.7 442.6L252 438.6L263.2 433L274.5 426.2L285.7 422L296.9 418L308.2 414.1L319.4 408.7L330.7 403.3L341.9 398.4L353.2 395.7L364.4 393.7L375.7 389.3L386.9 385.5L398.2 379.8L409.4 374.1L420.7 369.8L431.9 365.1L443.1 360.4L454.4 355.6L465.6 351.1L476.9 348L488.1 344.3L499.4 340.2L510.6 335.6L521.9 330.6L533.1 325.2L544.4 318.6L555.6 313.1L566.8 309.4L578.1 297.4L589.3 291.9L600.6 285.2L611.8 279.9L623.1 273.2L634.3 268.7L645.6 263L656.8 256.4L668.1 250.8L679.3 244.9L690.6 239.4" fill="none" stroke-width="1"></path></g><g><path stroke-linecap="round" stroke-linejoin="round" stroke="#ddd" d="M72 498.1L83.3 492.6L94.5 486.4L105.8 482L117 479.3L128.3 473.8L139.5 467.6L150.8 463.1L162 462L173.2 453.7L184.5 451.1L195.7 446.7L207 440.9L218.2 433.5L229.5 425.7L240.7 419.6L252 415.7L263.2 413.8L274.5 406.8L285.7 400.6L296.9 393L308.2 386L319.4 377.4L330.7 368.1L341.9 364.2L353.2 355.4L364.4 348.4L375.7 342.6L386.9 336L398.2 326L409.4 311.6L420.7 314.8L431.9 300.9L443.1 288.1L454.4 278.3L465.6 274.8L476.9 269.1L488.1 258.6L499.4 250.5L510.6 241.9L521.9 232.7L533.1 223.7L544.4 214.4L555.6 200.8L566.8 192.5L578.1 180.8L589.3 173.3L600.6 161.2L611.8 151L623.1 141.7L634.3 131.6L645.6 127.5L656.8 118.1L668.1 109.6L679.3 114.2L690.6 109.6L701.8 88.3" fill="none" stroke-width="1"></path></g><g><path stroke-linecap="round" stroke-linejoin="round" stroke="#ddd" d="M72 498.1L83.3 494.5L94.5 495.8L105.8 482.7L117 482.1L128.3 481.9L139.5 477.5L150.8 470.7L162 467.1L173.2 460L184.5 465.2L195.7 459.1L207 456L218.2 443.8L229.5 436.6L240.7 438.9L252 440L263.2 439.2L274.5 441.3L285.7 436.3L296.9 435.5L308.2 429.2L319.4 426.9L330.7 422.8L341.9 421L353.2 423.8L364.4 418L375.7 424L386.9 421.6L398.2 415.2L409.4 417.9L420.7 422.8L431.9 416.6L443.1 413.3L454.4 403.9L465.6 395.7L476.9 391.1L488.1 394.4L499.4 399.5L510.6 391.7L521.9 393.2L533.1 383.2L544.4 382.5L555.6 385.9L566.8 378.3L578.1 390.5L623.1 383.6" fill="none" stroke-width="1"></path></g><g><path stroke-linecap="round" stroke-linejoin="round" stroke="#ddd" d="M128.3 498.1L240.7 470.8L353.2 449.7L465.6 413.7L578.1 344.1L645.6 311.7L656.8 306.5L668.1 300.8" fill="none" stroke-width="1"></path></g><g><path stroke-linecap="round" stroke-linejoin="round" stroke="#ddd" d="M72 498.1L83.3 491.4L94.5 486.3L105.8 478L117 468.1L128.3 458.1L139.5 451.3L150.8 442L162 431.3L173.2 430.1L184.5 429.1L195.7 418.7L207 411.1L218.2 402.5L229.5 394.8L240.7 396.7L252 397.7L263.2 398.9L274.5 395.2L285.7 384.3L296.9 378.1L308.2 372.5L319.4 363.7L330.7 353.9L341.9 348.6L353.2 345.2L364.4 343.1L375.7 341.4L386.9 339.1L398.2 335.5L409.4 329L420.7 320.5L431.9 317.4L443.1 315.4L454.4 310.1L465.6 302.1L476.9 298.9L488.1 291.8L499.4 279.9L510.6 262.9L521.9 251.3L533.1 240.7L544.4 228.8L555.6 224.2L566.8 230.3L578.1 211.1L589.3 201.1L600.6 195.2L611.8 187.6L623.1 182.7L634.3 179L645.6 172.7L656.8 163.9L668.1 151.1L679.3 147L690.6 166.1L701.8 140.7" fill="none" stroke-width="1"></path></g><g><path stroke-linecap="round" stroke-linejoin="round" stroke="#ddd" d="M252 498.1L263.2 493.6L274.5 494L285.7 488.3L296.9 481.4L308.2 478L319.4 475.2L330.7 471.6L341.9 468.9L353.2 469.2L364.4 473.4L375.7 473.7L386.9 478.3L398.2 474.9L409.4 470.3L420.7 468.2L431.9 465.9L443.1 468.8L454.4 468.8L465.6 466.5L476.9 459.7L488.1 457.7L499.4 445.5L510.6 429.9L521.9 417.7L533.1 407.1L544.4 397.5L555.6 390.1L566.8 390.3L578.1 377.2L589.3 359.1L600.6 356L611.8 351.2L623.1 352.1L634.3 359.1L645.6 372.9L656.8 366.7L668.1 353.6L679.3 350.4L690.6 364.3L701.8 349.7" fill="none" stroke-width="1"></path></g><g><path stroke-linecap="round" stroke-linejoin="round" stroke="#ddd" d="M128.3 498.1L139.5 489.3L150.8 482.6L162 475.8L173.2 472.6L184.5 472.3L195.7 465.7L207 459L218.2 453.4L229.5 441.8L240.7 439.4L252 436.2L263.2 435.3L274.5 433.6L285.7 417.2L296.9 411.7L308.2 406.2L319.4 395.3L330.7 385.1L341.9 377.1L353.2 369L364.4 365.6L375.7 364.9L386.9 361.9L398.2 358L409.4 353.6L420.7 340.4L431.9 340.6L443.1 333.1L454.4 324.8L465.6 313L476.9 305.7L488.1 298.2L499.4 286.5L510.6 275L521.9 266.6L533.1 254.4L544.4 244.5L555.6 230.6L566.8 242.8L578.1 215.6L589.3 201.7L600.6 192.8L611.8 187.7L623.1 178.8L634.3 168.7L645.6 164.4L656.8 147.6L668.1 124.5L679.3 109.4L690.6 123.2L701.8 100.4" fill="none" stroke-width="1"></path></g><g><path stroke-linecap="round" stroke-linejoin="round" stroke="#ddd" d="M72 498.1L83.3 495.5L94.5 492.9L105.8 490.2L117 487.4L128.3 484.5L139.5 481.7L150.8 478.8L162 476L173.2 473.1L184.5 470.3L195.7 467.5L207 464.7L218.2 461.9L229.5 459L240.7 456.1L252 453L263.2 449.8L274.5 446.6L285.7 443.5L296.9 440.2L308.2 436.8L319.4 433.4L330.7 429.9L341.9 426.4L353.2 422.9L364.4 419.5L375.7 416.2L386.9 413L398.2 409.8L409.4 406.7L420.7 403.6L431.9 400.5L443.1 397.4L454.4 394.4L465.6 391.3L476.9 388.2L488.1 385.1L499.4 382L510.6 378.8L521.9 375.7L533.1 372.6L544.4 369.3L555.6 366.1L566.8 362.8L578.1 359.5L589.3 356.1L600.6 352.8L611.8 349.4L623.1 346L634.3 342.7L645.6 339.4L656.8 336.1L668.1 332.9L679.3 329.8L690.6 327L701.8 324.4" fill="none" stroke-width="1"></path></g><g><path stroke-linecap="round" stroke-linejoin="round" stroke="#ddd" d="M72 498.1L83.3 498.3L94.5 498.1L105.8 497.1L117 495.8L128.3 496.4L139.5 496.9L150.8 496.9L162 496.3L173.2 496.6L184.5 496.7L195.7 496.2L207 496.3L218.2 495.5L229.5 495.1L240.7 494.8L252 494.8L263.2 493.8L274.5 493.3L285.7 491.5L296.9 490.1L308.2 489.6L319.4 489.6L330.7 489.8L341.9 489.9L353.2 490L364.4 489.7L375.7 490.2L386.9 490.4L398.2 490.8L409.4 490.9L420.7 491L431.9 490.6L443.1 490.8L454.4 490.6L465.6 491.1L476.9 491.3L488.1 491.6L499.4 491L510.6 490.7L521.9 490.5L533.1 490.9L544.4 491L555.6 491.1L566.8 490.8L578.1 490.6L589.3 489.7L600.6 489L611.8 488.7L623.1 488.6L634.3 488.6L645.6 488.5L656.8 487.9L668.1 488.1L679.3 488.3L690.6 488.3" fill="none" stroke-width="1"></path></g><g><path stroke-linecap="round" stroke-linejoin="round" stroke="#ddd" d="M72 498.1L83.3 488L94.5 479.1L105.8 470.5L117 473.7L128.3 458.2L139.5 457.1L150.8 466.7L162 464.8L173.2 455.7L184.5 456.3L195.7 447.5L207 448.4L218.2 442.6L229.5 441.1L240.7 437.9L252 431.7L263.2 426.2L274.5 424.5L285.7 407.6L296.9 400.5L308.2 383.5L319.4 378.6L330.7 366.2L341.9 362.5L353.2 370.4L364.4 369.5L375.7 358.7L386.9 347.3L398.2 325.2L409.4 315.8L420.7 305.9L431.9 306.4L443.1 319.8L454.4 297.3L465.6 287.2L476.9 287.8L488.1 279.3L499.4 279L510.6 256.9L521.9 250.1L533.1 246.8L544.4 237.7L555.6 230.3L566.8 220.9L578.1 212.1L589.3 189.9L600.6 178.3L611.8 157.6L623.1 146.3L634.3 130.7" fill="none" stroke-width="1"></path></g><g><path fill="none" stroke-linecap="butt" stroke-linejoin="round" stroke="#fff" stroke-width="2.5" d="M72 498.1L83.3 492L94.5 487.8L105.8 480.3L117 470.7L128.3 458L139.5 451.2L150.8 443.1L162 433.5L173.2 434.3L184.5 433.8L195.7 423.3L207 417.6L218.2 411.2L229.5 405.1L240.7 406.4L252 411.6L263.2 413.3L274.5 412L285.7 404.6L296.9 397.2L308.2 393.8L319.4 386.6L330.7 377.2L341.9 373.8L353.2 369.9L364.4 364.5L375.7 371.9L386.9 369.3L398.2 367.6L409.4 362.1L420.7 354.2L431.9 352.6L443.1 353.6L454.4 347.8L465.6 339.7L476.9 337.3L488.1 330.4L499.4 315.1L510.6 304L521.9 293.1L533.1 282.1L544.4 271.9L555.6 265.4L566.8 271.2L578.1 251.1L589.3 238.5L600.6 232.7L611.8 229.2L623.1 226.3L634.3 226.5L645.6 226.9L656.8 220.4L668.1 212.3L679.3 209.4L690.6 229.8L701.8 208.9"></path><polyline points="72.00,498.10 83.30,492.00 94.50,487.80 105.80,480.30 117.00,470.70 128.30,458.00 139.50,451.20 150.80,443.10 162.00,433.50 173.20,434.30 184.50,433.80 195.70,423.30 207.00,417.60 218.20,411.20 229.50,405.10 240.70,406.40 252.00,411.60 263.20,413.30 274.50,412.00 285.70,404.60 296.90,397.20 308.20,393.80 319.40,386.60 330.70,377.20 341.90,373.80 353.20,369.90 364.40,364.50 375.70,371.90 386.90,369.30 398.20,367.60 409.40,362.10 420.70,354.20 431.90,352.60 443.10,353.60 454.40,347.80 465.60,339.70 476.90,337.30 488.10,330.40 499.40,315.10 510.60,304.00 521.90,293.10 533.10,282.10 544.40,271.90 555.60,265.40 566.80,271.20 578.10,251.10 589.30,238.50 600.60,232.70 611.80,229.20 623.10,226.30 634.30,226.50 645.60,226.90 656.80,220.40 668.10,212.30 679.30,209.40 690.60,229.80 701.80,208.90" stroke-linejoin="round" stroke-width="1.5" stroke="#008291" fill="none" stroke-linecap="butt"></polyline></g><g><path fill="none" stroke-linecap="butt" stroke-linejoin="round" stroke="#fff" stroke-width="2.5" d="M72 498.1L83.3 488.5L94.5 484.9L105.8 481.2L117 480.2L128.3 475.4L139.5 464.6L150.8 467.5L162 460.5L173.2 464.6L184.5 462.9L195.7 453.3L207 453.3L218.2 437.5L229.5 440.6L240.7 441.8L252 434.6L263.2 424.2L274.5 429.3L285.7 413.2L296.9 410.7L308.2 408.3L319.4 409.8L330.7 416.5L341.9 402.2L353.2 391.3L364.4 397.6L375.7 389.2L386.9 392.9L398.2 385.9L409.4 390.8L420.7 375.7L431.9 371.3L443.1 365.3L454.4 361.9L465.6 365.1L476.9 359.7L488.1 361.9L499.4 362.9L510.6 338.8L521.9 348.1L533.1 344.8L544.4 339.2L555.6 325.3L566.8 323.8L578.1 324.5L589.3 315.3L600.6 318.7L611.8 301.5L623.1 295.4L634.3 292.3L645.6 285.1L656.8 279.9L668.1 283.6L679.3 275.5L690.6 276.2L701.8 273.1"></path><polyline points="72.00,498.10 83.30,488.50 94.50,484.90 105.80,481.20 117.00,480.20 128.30,475.40 139.50,464.60 150.80,467.50 162.00,460.50 173.20,464.60 184.50,462.90 195.70,453.30 207.00,453.30 218.20,437.50 229.50,440.60 240.70,441.80 252.00,434.60 263.20,424.20 274.50,429.30 285.70,413.20 296.90,410.70 308.20,408.30 319.40,409.80 330.70,416.50 341.90,402.20 353.20,391.30 364.40,397.60 375.70,389.20 386.90,392.90 398.20,385.90 409.40,390.80 420.70,375.70 431.90,371.30 443.10,365.30 454.40,361.90 465.60,365.10 476.90,359.70 488.10,361.90 499.40,362.90 510.60,338.80 521.90,348.10 533.10,344.80 544.40,339.20 555.60,325.30 566.80,323.80 578.10,324.50 589.30,315.30 600.60,318.70 611.80,301.50 623.10,295.40 634.30,292.30 645.60,285.10 656.80,279.90 668.10,283.60 679.30,275.50 690.60,276.20 701.80,273.10" stroke-linejoin="round" stroke-width="1.5" stroke="#A2559C" fill="none" stroke-linecap="butt"></polyline></g><g><path fill="none" stroke-linecap="butt" stroke-linejoin="round" stroke="#fff" stroke-width="2.5" d="M72 498.1L83.3 487.2L94.5 477.2L105.8 463.8L117 451.5L128.3 434.1L139.5 423.2L150.8 411.7L162 392.3L173.2 391.8L184.5 403.5L195.7 384.3L207 375.9L218.2 373.7L229.5 363L240.7 374.9L252 389.3L263.2 398.6L274.5 401.5L285.7 397.1L296.9 399.1L308.2 388L319.4 387.4L330.7 377.2L341.9 374.3L353.2 369.5L364.4 370.2L375.7 366.5L386.9 366.8L398.2 363.3L409.4 359.7L420.7 352.6L431.9 346.5L443.1 339.5L454.4 346L465.6 333.8L476.9 333.9L488.1 337.4L499.4 324.6L510.6 309.6L521.9 306.9L533.1 304L544.4 304.7L555.6 301.3L566.8 309.3L578.1 303L589.3 300.5L600.6 291.7L611.8 291.1L623.1 283.3L634.3 271.8L645.6 270.6L656.8 270.1L668.1 261.9L679.3 262.7L690.6 287.5L701.8 283.4"></path><polyline points="72.00,498.10 83.30,487.20 94.50,477.20 105.80,463.80 117.00,451.50 128.30,434.10 139.50,423.20 150.80,411.70 162.00,392.30 173.20,391.80 184.50,403.50 195.70,384.30 207.00,375.90 218.20,373.70 229.50,363.00 240.70,374.90 252.00,389.30 263.20,398.60 274.50,401.50 285.70,397.10 296.90,399.10 308.20,388.00 319.40,387.40 330.70,377.20 341.90,374.30 353.20,369.50 364.40,370.20 375.70,366.50 386.90,366.80 398.20,363.30 409.40,359.70 420.70,352.60 431.90,346.50 443.10,339.50 454.40,346.00 465.60,333.80 476.90,333.90 488.10,337.40 499.40,324.60 510.60,309.60 521.90,306.90 533.10,304.00 544.40,304.70 555.60,301.30 566.80,309.30 578.10,303.00 589.30,300.50 600.60,291.70 611.80,291.10 623.10,283.30 634.30,271.80 645.60,270.60 656.80,270.10 668.10,261.90 679.30,262.70 690.60,287.50 701.80,283.40" stroke-linejoin="round" stroke-width="1.5" stroke="#C4523E" fill="none" stroke-linecap="butt"></polyline></g><g><path fill="none" stroke-linecap="butt" stroke-linejoin="round" stroke="#fff" stroke-width="2.5" d="M72 498.1L83.3 497.9L94.5 497.6L105.8 496.6L117 496.3L128.3 496.7L139.5 496.3L150.8 496L162 495.5L173.2 495.2L184.5 495L195.7 494.9L207 494.9L218.2 494.4L229.5 494.3L240.7 493.8L252 493.8L263.2 493.3L274.5 493L285.7 492.2L296.9 491.3L308.2 491.2L319.4 490.8L330.7 490.2L341.9 489.9L353.2 489.6L364.4 489.5L375.7 488.4L386.9 488.9L398.2 488.3L409.4 488.4L420.7 488.2L431.9 487.6L443.1 487.2L454.4 487.1L465.6 487L476.9 486.9L488.1 487.3L499.4 487.7L510.6 488.8L521.9 488.6L533.1 488.7L544.4 488.9L555.6 489.3L566.8 489.4L578.1 489.4L589.3 488.8L600.6 490.2L611.8 490.4L623.1 490.5L634.3 491.2L645.6 491.2L656.8 490.2L668.1 490.6L679.3 490.6L690.6 490.8"></path><polyline points="72.00,498.10 83.30,497.90 94.50,497.60 105.80,496.60 117.00,496.30 128.30,496.70 139.50,496.30 150.80,496.00 162.00,495.50 173.20,495.20 184.50,495.00 195.70,494.90 207.00,494.90 218.20,494.40 229.50,494.30 240.70,493.80 252.00,493.80 263.20,493.30 274.50,493.00 285.70,492.20 296.90,491.30 308.20,491.20 319.40,490.80 330.70,490.20 341.90,489.90 353.20,489.60 364.40,489.50 375.70,488.40 386.90,488.90 398.20,488.30 409.40,488.40 420.70,488.20 431.90,487.60 443.10,487.20 454.40,487.10 465.60,487.00 476.90,486.90 488.10,487.30 499.40,487.70 510.60,488.80 521.90,488.60 533.10,488.70 544.40,488.90 555.60,489.30 566.80,489.40 578.10,489.40 589.30,488.80 600.60,490.20 611.80,490.40 623.10,490.50 634.30,491.20 645.60,491.20 656.80,490.20 668.10,490.60 679.30,490.60 690.60,490.80" stroke-linejoin="round" stroke-width="1.5" stroke="#9A5129" fill="none" stroke-linecap="butt"></polyline></g><g><path fill="none" stroke-linecap="butt" stroke-linejoin="round" stroke="#fff" stroke-width="2.5" d="M72 498.1L83.3 494.6L94.5 491.7L105.8 488.7L117 485.3L128.3 479.6L139.5 478.1L150.8 476L162 470.7L173.2 468.2L184.5 464.3L195.7 461.8L207 456.9L218.2 449.8L229.5 446.8L240.7 442.6L252 438.6L263.2 433L274.5 426.2L285.7 422L296.9 418L308.2 414.1L319.4 408.7L330.7 403.3L341.9 398.4L353.2 395.7L364.4 393.7L375.7 389.3L386.9 385.5L398.2 379.8L409.4 374.1L420.7 369.8L431.9 365.1L443.1 360.4L454.4 355.6L465.6 351.1L476.9 348L488.1 344.3L499.4 340.2L510.6 335.6L521.9 330.6L533.1 325.2L544.4 318.6L555.6 313.1L566.8 309.4L578.1 297.4L589.3 291.9L600.6 285.2L611.8 279.9L623.1 273.2L634.3 268.7L645.6 263L656.8 256.4L668.1 250.8L679.3 244.9L690.6 239.4"></path><polyline points="72.00,498.10 83.30,494.60 94.50,491.70 105.80,488.70 117.00,485.30 128.30,479.60 139.50,478.10 150.80,476.00 162.00,470.70 173.20,468.20 184.50,464.30 195.70,461.80 207.00,456.90 218.20,449.80 229.50,446.80 240.70,442.60 252.00,438.60 263.20,433.00 274.50,426.20 285.70,422.00 296.90,418.00 308.20,414.10 319.40,408.70 330.70,403.30 341.90,398.40 353.20,395.70 364.40,393.70 375.70,389.30 386.90,385.50 398.20,379.80 409.40,374.10 420.70,369.80 431.90,365.10 443.10,360.40 454.40,355.60 465.60,351.10 476.90,348.00 488.10,344.30 499.40,340.20 510.60,335.60 521.90,330.60 533.10,325.20 544.40,318.60 555.60,313.10 566.80,309.40 578.10,297.40 589.30,291.90 600.60,285.20 611.80,279.90 623.10,273.20 634.30,268.70 645.60,263.00 656.80,256.40 668.10,250.80 679.30,244.90 690.60,239.40" stroke-linejoin="round" stroke-width="1.5" stroke="#00295B" fill="none" stroke-linecap="butt"></polyline></g><g><path fill="none" stroke-linecap="butt" stroke-linejoin="round" stroke="#fff" stroke-width="2.5" d="M72 498.1L83.3 492.6L94.5 486.4L105.8 482L117 479.3L128.3 473.8L139.5 467.6L150.8 463.1L162 462L173.2 453.7L184.5 451.1L195.7 446.7L207 440.9L218.2 433.5L229.5 425.7L240.7 419.6L252 415.7L263.2 413.8L274.5 406.8L285.7 400.6L296.9 393L308.2 386L319.4 377.4L330.7 368.1L341.9 364.2L353.2 355.4L364.4 348.4L375.7 342.6L386.9 336L398.2 326L409.4 311.6L420.7 314.8L431.9 300.9L443.1 288.1L454.4 278.3L465.6 274.8L476.9 269.1L488.1 258.6L499.4 250.5L510.6 241.9L521.9 232.7L533.1 223.7L544.4 214.4L555.6 200.8L566.8 192.5L578.1 180.8L589.3 173.3L600.6 161.2L611.8 151L623.1 141.7L634.3 131.6L645.6 127.5L656.8 118.1L668.1 109.6L679.3 114.2L690.6 109.6L701.8 88.3"></path><polyline points="72.00,498.10 83.30,492.60 94.50,486.40 105.80,482.00 117.00,479.30 128.30,473.80 139.50,467.60 150.80,463.10 162.00,462.00 173.20,453.70 184.50,451.10 195.70,446.70 207.00,440.90 218.20,433.50 229.50,425.70 240.70,419.60 252.00,415.70 263.20,413.80 274.50,406.80 285.70,400.60 296.90,393.00 308.20,386.00 319.40,377.40 330.70,368.10 341.90,364.20 353.20,355.40 364.40,348.40 375.70,342.60 386.90,336.00 398.20,326.00 409.40,311.60 420.70,314.80 431.90,300.90 443.10,288.10 454.40,278.30 465.60,274.80 476.90,269.10 488.10,258.60 499.40,250.50 510.60,241.90 521.90,232.70 533.10,223.70 544.40,214.40 555.60,200.80 566.80,192.50 578.10,180.80 589.30,173.30 600.60,161.20 611.80,151.00 623.10,141.70 634.30,131.60 645.60,127.50 656.80,118.10 668.10,109.60 679.30,114.20 690.60,109.60 701.80,88.30" stroke-linejoin="round" stroke-width="1.5" stroke="#996D39" fill="none" stroke-linecap="butt"></polyline></g><g><path fill="none" stroke-linecap="butt" stroke-linejoin="round" stroke="#fff" stroke-width="2.5" d="M72 498.1L83.3 494.5L94.5 495.8L105.8 482.7L117 482.1L128.3 481.9L139.5 477.5L150.8 470.7L162 467.1L173.2 460L184.5 465.2L195.7 459.1L207 456L218.2 443.8L229.5 436.6L240.7 438.9L252 440L263.2 439.2L274.5 441.3L285.7 436.3L296.9 435.5L308.2 429.2L319.4 426.9L330.7 422.8L341.9 421L353.2 423.8L364.4 418L375.7 424L386.9 421.6L398.2 415.2L409.4 417.9L420.7 422.8L431.9 416.6L443.1 413.3L454.4 403.9L465.6 395.7L476.9 391.1L488.1 394.4L499.4 399.5L510.6 391.7L521.9 393.2L533.1 383.2L544.4 382.5L555.6 385.9L566.8 378.3L578.1 390.5L623.1 383.6"></path><polyline points="72.00,498.10 83.30,494.50 94.50,495.80 105.80,482.70 117.00,482.10 128.30,481.90 139.50,477.50 150.80,470.70 162.00,467.10 173.20,460.00 184.50,465.20 195.70,459.10 207.00,456.00 218.20,443.80 229.50,436.60 240.70,438.90 252.00,440.00 263.20,439.20 274.50,441.30 285.70,436.30 296.90,435.50 308.20,429.20 319.40,426.90 330.70,422.80 341.90,421.00 353.20,423.80 364.40,418.00 375.70,424.00 386.90,421.60 398.20,415.20 409.40,417.90 420.70,422.80 431.90,416.60 443.10,413.30 454.40,403.90 465.60,395.70 476.90,391.10 488.10,394.40 499.40,399.50 510.60,391.70 521.90,393.20 533.10,383.20 544.40,382.50 555.60,385.90 566.80,378.30 578.10,390.50 623.10,383.60" stroke-linejoin="round" stroke-width="1.5" stroke="#883039" fill="none" stroke-linecap="butt"></polyline></g><g><path fill="none" stroke-linecap="butt" stroke-linejoin="round" stroke="#fff" stroke-width="2.5" d="M128.3 498.1L240.7 470.8L353.2 449.7L465.6 413.7L578.1 344.1L645.6 311.7L656.8 306.5L668.1 300.8"></path><polyline points="128.30,498.10 240.70,470.80 353.20,449.70 465.60,413.70 578.10,344.10 645.60,311.70 656.80,306.50 668.10,300.80" stroke-linejoin="round" stroke-width="1.5" stroke="#286BBB" fill="none" stroke-linecap="butt"></polyline></g><g><path fill="none" stroke-linecap="butt" stroke-linejoin="round" stroke="#fff" stroke-width="2.5" d="M72 498.1L83.3 491.4L94.5 486.3L105.8 478L117 468.1L128.3 458.1L139.5 451.3L150.8 442L162 431.3L173.2 430.1L184.5 429.1L195.7 418.7L207 411.1L218.2 402.5L229.5 394.8L240.7 396.7L252 397.7L263.2 398.9L274.5 395.2L285.7 384.3L296.9 378.1L308.2 372.5L319.4 363.7L330.7 353.9L341.9 348.6L353.2 345.2L364.4 343.1L375.7 341.4L386.9 339.1L398.2 335.5L409.4 329L420.7 320.5L431.9 317.4L443.1 315.4L454.4 310.1L465.6 302.1L476.9 298.9L488.1 291.8L499.4 279.9L510.6 262.9L521.9 251.3L533.1 240.7L544.4 228.8L555.6 224.2L566.8 230.3L578.1 211.1L589.3 201.1L600.6 195.2L611.8 187.6L623.1 182.7L634.3 179L645.6 172.7L656.8 163.9L668.1 151.1L679.3 147L690.6 166.1L701.8 140.7"></path><polyline points="72.00,498.10 83.30,491.40 94.50,486.30 105.80,478.00 117.00,468.10 128.30,458.10 139.50,451.30 150.80,442.00 162.00,431.30 173.20,430.10 184.50,429.10 195.70,418.70 207.00,411.10 218.20,402.50 229.50,394.80 240.70,396.70 252.00,397.70 263.20,398.90 274.50,395.20 285.70,384.30 296.90,378.10 308.20,372.50 319.40,363.70 330.70,353.90 341.90,348.60 353.20,345.20 364.40,343.10 375.70,341.40 386.90,339.10 398.20,335.50 409.40,329.00 420.70,320.50 431.90,317.40 443.10,315.40 454.40,310.10 465.60,302.10 476.90,298.90 488.10,291.80 499.40,279.90 510.60,262.90 521.90,251.30 533.10,240.70 544.40,228.80 555.60,224.20 566.80,230.30 578.10,211.10 589.30,201.10 600.60,195.20 611.80,187.60 623.10,182.70 634.30,179.00 645.60,172.70 656.80,163.90 668.10,151.10 679.30,147.00 690.60,166.10 701.80,140.70" stroke-linejoin="round" stroke-width="1.5" stroke="#18470F" fill="none" stroke-linecap="butt"></polyline></g><g><path fill="none" stroke-linecap="butt" stroke-linejoin="round" stroke="#fff" stroke-width="2.5" d="M252 498.1L263.2 493.6L274.5 494L285.7 488.3L296.9 481.4L308.2 478L319.4 475.2L330.7 471.6L341.9 468.9L353.2 469.2L364.4 473.4L375.7 473.7L386.9 478.3L398.2 474.9L409.4 470.3L420.7 468.2L431.9 465.9L443.1 468.8L454.4 468.8L465.6 466.5L476.9 459.7L488.1 457.7L499.4 445.5L510.6 429.9L521.9 417.7L533.1 407.1L544.4 397.5L555.6 390.1L566.8 390.3L578.1 377.2L589.3 359.1L600.6 356L611.8 351.2L623.1 352.1L634.3 359.1L645.6 372.9L656.8 366.7L668.1 353.6L679.3 350.4L690.6 364.3L701.8 349.7"></path><polyline points="252.00,498.10 263.20,493.60 274.50,494.00 285.70,488.30 296.90,481.40 308.20,478.00 319.40,475.20 330.70,471.60 341.90,468.90 353.20,469.20 364.40,473.40 375.70,473.70 386.90,478.30 398.20,474.90 409.40,470.30 420.70,468.20 431.90,465.90 443.10,468.80 454.40,468.80 465.60,466.50 476.90,459.70 488.10,457.70 499.40,445.50 510.60,429.90 521.90,417.70 533.10,407.10 544.40,397.50 555.60,390.10 566.80,390.30 578.10,377.20 589.30,359.10 600.60,356.00 611.80,351.20 623.10,352.10 634.30,359.10 645.60,372.90 656.80,366.70 668.10,353.60 679.30,350.40 690.60,364.30 701.80,349.70" stroke-linejoin="round" stroke-width="1.5" stroke="#CF0A66" fill="none" stroke-linecap="butt"></polyline></g><g><path fill="none" stroke-linecap="butt" stroke-linejoin="round" stroke="#fff" stroke-width="2.5" d="M128.3 498.1L139.5 489.3L150.8 482.6L162 475.8L173.2 472.6L184.5 472.3L195.7 465.7L207 459L218.2 453.4L229.5 441.8L240.7 439.4L252 436.2L263.2 435.3L274.5 433.6L285.7 417.2L296.9 411.7L308.2 406.2L319.4 395.3L330.7 385.1L341.9 377.1L353.2 369L364.4 365.6L375.7 364.9L386.9 361.9L398.2 358L409.4 353.6L420.7 340.4L431.9 340.6L443.1 333.1L454.4 324.8L465.6 313L476.9 305.7L488.1 298.2L499.4 286.5L510.6 275L521.9 266.6L533.1 254.4L544.4 244.5L555.6 230.6L566.8 242.8L578.1 215.6L589.3 201.7L600.6 192.8L611.8 187.7L623.1 178.8L634.3 168.7L645.6 164.4L656.8 147.6L668.1 124.5L679.3 109.4L690.6 123.2L701.8 100.4"></path><polyline points="128.30,498.10 139.50,489.30 150.80,482.60 162.00,475.80 173.20,472.60 184.50,472.30 195.70,465.70 207.00,459.00 218.20,453.40 229.50,441.80 240.70,439.40 252.00,436.20 263.20,435.30 274.50,433.60 285.70,417.20 296.90,411.70 308.20,406.20 319.40,395.30 330.70,385.10 341.90,377.10 353.20,369.00 364.40,365.60 375.70,364.90 386.90,361.90 398.20,358.00 409.40,353.60 420.70,340.40 431.90,340.60 443.10,333.10 454.40,324.80 465.60,313.00 476.90,305.70 488.10,298.20 499.40,286.50 510.60,275.00 521.90,266.60 533.10,254.40 544.40,244.50 555.60,230.60 566.80,242.80 578.10,215.60 589.30,201.70 600.60,192.80 611.80,187.70 623.10,178.80 634.30,168.70 645.60,164.40 656.80,147.60 668.10,124.50 679.30,109.40 690.60,123.20 701.80,100.40" stroke-linejoin="round" stroke-width="1.5" stroke="#6D3E91" fill="none" stroke-linecap="butt"></polyline></g><g><path fill="none" stroke-linecap="butt" stroke-linejoin="round" stroke="#fff" stroke-width="2.5" d="M72 498.1L83.3 495.5L94.5 492.9L105.8 490.2L117 487.4L128.3 484.5L139.5 481.7L150.8 478.8L162 476L173.2 473.1L184.5 470.3L195.7 467.5L207 464.7L218.2 461.9L229.5 459L240.7 456.1L252 453L263.2 449.8L274.5 446.6L285.7 443.5L296.9 440.2L308.2 436.8L319.4 433.4L330.7 429.9L341.9 426.4L353.2 422.9L364.4 419.5L375.7 416.2L386.9 413L398.2 409.8L409.4 406.7L420.7 403.6L431.9 400.5L443.1 397.4L454.4 394.4L465.6 391.3L476.9 388.2L488.1 385.1L499.4 382L510.6 378.8L521.9 375.7L533.1 372.6L544.4 369.3L555.6 366.1L566.8 362.8L578.1 359.5L589.3 356.1L600.6 352.8L611.8 349.4L623.1 346L634.3 342.7L645.6 339.4L656.8 336.1L668.1 332.9L679.3 329.8L690.6 327L701.8 324.4"></path><polyline points="72.00,498.10 83.30,495.50 94.50,492.90 105.80,490.20 117.00,487.40 128.30,484.50 139.50,481.70 150.80,478.80 162.00,476.00 173.20,473.10 184.50,470.30 195.70,467.50 207.00,464.70 218.20,461.90 229.50,459.00 240.70,456.10 252.00,453.00 263.20,449.80 274.50,446.60 285.70,443.50 296.90,440.20 308.20,436.80 319.40,433.40 330.70,429.90 341.90,426.40 353.20,422.90 364.40,419.50 375.70,416.20 386.90,413.00 398.20,409.80 409.40,406.70 420.70,403.60 431.90,400.50 443.10,397.40 454.40,394.40 465.60,391.30 476.90,388.20 488.10,385.10 499.40,382.00 510.60,378.80 521.90,375.70 533.10,372.60 544.40,369.30 555.60,366.10 566.80,362.80 578.10,359.50 589.30,356.10 600.60,352.80 611.80,349.40 623.10,346.00 634.30,342.70 645.60,339.40 656.80,336.10 668.10,332.90 679.30,329.80 690.60,327.00 701.80,324.40" stroke-linejoin="round" stroke-width="1.5" stroke="#BE5915" fill="none" stroke-linecap="butt"></polyline></g><g><path fill="none" stroke-linecap="butt" stroke-linejoin="round" stroke="#fff" stroke-width="2.5" d="M72 498.1L83.3 498.3L94.5 498.1L105.8 497.1L117 495.8L128.3 496.4L139.5 496.9L150.8 496.9L162 496.3L173.2 496.6L184.5 496.7L195.7 496.2L207 496.3L218.2 495.5L229.5 495.1L240.7 494.8L252 494.8L263.2 493.8L274.5 493.3L285.7 491.5L296.9 490.1L308.2 489.6L319.4 489.6L330.7 489.8L341.9 489.9L353.2 490L364.4 489.7L375.7 490.2L386.9 490.4L398.2 490.8L409.4 490.9L420.7 491L431.9 490.6L443.1 490.8L454.4 490.6L465.6 491.1L476.9 491.3L488.1 491.6L499.4 491L510.6 490.7L521.9 490.5L533.1 490.9L544.4 491L555.6 491.1L566.8 490.8L578.1 490.6L589.3 489.7L600.6 489L611.8 488.7L623.1 488.6L634.3 488.6L645.6 488.5L656.8 487.9L668.1 488.1L679.3 488.3L690.6 488.3"></path><polyline points="72.00,498.10 83.30,498.30 94.50,498.10 105.80,497.10 117.00,495.80 128.30,496.40 139.50,496.90 150.80,496.90 162.00,496.30 173.20,496.60 184.50,496.70 195.70,496.20 207.00,496.30 218.20,495.50 229.50,495.10 240.70,494.80 252.00,494.80 263.20,493.80 274.50,493.30 285.70,491.50 296.90,490.10 308.20,489.60 319.40,489.60 330.70,489.80 341.90,489.90 353.20,490.00 364.40,489.70 375.70,490.20 386.90,490.40 398.20,490.80 409.40,490.90 420.70,491.00 431.90,490.60 443.10,490.80 454.40,490.60 465.60,491.10 476.90,491.30 488.10,491.60 499.40,491.00 510.60,490.70 521.90,490.50 533.10,490.90 544.40,491.00 555.60,491.10 566.80,490.80 578.10,490.60 589.30,489.70 600.60,489.00 611.80,488.70 623.10,488.60 634.30,488.60 645.60,488.50 656.80,487.90 668.10,488.10 679.30,488.30 690.60,488.30" stroke-linejoin="round" stroke-width="1.5" stroke="#2C8465" fill="none" stroke-linecap="butt"></polyline></g><g><path fill="none" stroke-linecap="butt" stroke-linejoin="round" stroke="#fff" stroke-width="2.5" d="M72 498.1L83.3 488L94.5 479.1L105.8 470.5L117 473.7L128.3 458.2L139.5 457.1L150.8 466.7L162 464.8L173.2 455.7L184.5 456.3L195.7 447.5L207 448.4L218.2 442.6L229.5 441.1L240.7 437.9L252 431.7L263.2 426.2L274.5 424.5L285.7 407.6L296.9 400.5L308.2 383.5L319.4 378.6L330.7 366.2L341.9 362.5L353.2 370.4L364.4 369.5L375.7 358.7L386.9 347.3L398.2 325.2L409.4 315.8L420.7 305.9L431.9 306.4L443.1 319.8L454.4 297.3L465.6 287.2L476.9 287.8L488.1 279.3L499.4 279L510.6 256.9L521.9 250.1L533.1 246.8L544.4 237.7L555.6 230.3L566.8 220.9L578.1 212.1L589.3 189.9L600.6 178.3L611.8 157.6L623.1 146.3L634.3 130.7"></path><polyline points="72.00,498.10 83.30,488.00 94.50,479.10 105.80,470.50 117.00,473.70 128.30,458.20 139.50,457.10 150.80,466.70 162.00,464.80 173.20,455.70 184.50,456.30 195.70,447.50 207.00,448.40 218.20,442.60 229.50,441.10 240.70,437.90 252.00,431.70 263.20,426.20 274.50,424.50 285.70,407.60 296.90,400.50 308.20,383.50 319.40,378.60 330.70,366.20 341.90,362.50 353.20,370.40 364.40,369.50 375.70,358.70 386.90,347.30 398.20,325.20 409.40,315.80 420.70,305.90 431.90,306.40 443.10,319.80 454.40,297.30 465.60,287.20 476.90,287.80 488.10,279.30 499.40,279.00 510.60,256.90 521.90,250.10 533.10,246.80 544.40,237.70 555.60,230.30 566.80,220.90 578.10,212.10 589.30,189.90 600.60,178.30 611.80,157.60 623.10,146.30 634.30,130.70" stroke-linejoin="round" stroke-width="1.5" stroke="#C15065" fill="none" stroke-linecap="butt"></polyline></g></g></g></g><g class="SourcesFooter" style="fill:#5b5b5b"><text x="16.0" y="547.5" style="font-size:12.375px;line-height:1.2"><tspan x="16" y="547.5"><tspan style="font-weight:700">Data source:</tspan> World Bank; Food and Agriculture Organization of the United Nations; BP Statistical Review of World Energy; Global Carbon Project;</tspan><tspan x="16" y="562.3">Maddison Project Database (2020)</tspan></text><text font-size="12.38" x="16.0" y="581.2"><tspan x="16" y="581.1537500000001"><a target="_blank" href="https://ourworldindata.org/biodiversity">OurWorldInData.org/biodiversity</a> | <a target="_blank" style='fill: #5b5b5b;' href="http://creativecommons.org/licenses/by/4.0/deed.en_US">CC BY</a></tspan></text></g></svg>