<svg xmlns="http://www.w3.org/2000/svg" version="1.1" style="font-family:Lato, &#x27;Helvetica Neue&#x27;, Helvetica, Arial, &#x27;Liberation Sans&#x27;, sans-serif;font-size:16px;background-color:white;text-rendering:geometricPrecision;-webkit-font-smoothing:antialiased;overflow:visible" width="850" height="600" viewBox="0 0 850 600"><defs><style>@import url(http://localhost:3030/fonts.css)</style></defs><defs><pattern id="noDataPattern" patternUnits="userSpaceOnUse" width="4" height="4" patternTransform="rotate(-45 2 2)"><path d="M -1,2 l 6,0" stroke="#ccc" stroke-width="0.7"></path></pattern></defs><rect class="background-fill" fill="white" width="850" height="600"></rect><g class="HeaderView"><g transform="translate(783, 16) scale(0.7)"><svg className="owidLogo" xmlns="http://www.w3.org/2000/svg" width="73" height="40" viewBox="0 0 73 40" fill="none"><path fill="#002147" d="M0 0h72v40H0z"/><path fill="#CE261E" d="M0 37h72v3H0z"/><path fill="#fff" d="M16.96 11.977c0 .654-.105 1.254-.316 1.802a4.141 4.141 0 0 1-.883 1.412c-.381.394-.838.7-1.37.92a4.605 4.605 0 0 1-1.77.328c-.646 0-1.236-.11-1.772-.329a4.01 4.01 0 0 1-1.37-.919 4.27 4.27 0 0 1-.882-1.412 4.972 4.972 0 0 1-.317-1.802c0-.649.106-1.247.317-1.795a4.19 4.19 0 0 1 .882-1.412 3.969 3.969 0 0 1 1.37-.926 4.562 4.562 0 0 1 1.771-.334c.65 0 1.24.111 1.772.334.531.22.988.528 1.37.926.38.393.675.864.882 1.412.21.548.316 1.146.316 1.795Zm-1.327 0a4.3 4.3 0 0 0-.213-1.4 2.96 2.96 0 0 0-.608-1.053 2.592 2.592 0 0 0-.95-.663 3.194 3.194 0 0 0-1.242-.231 3.24 3.24 0 0 0-1.247.23c-.37.155-.686.376-.95.664-.264.288-.467.64-.609 1.053-.142.414-.213.881-.213 1.4 0 .524.071.993.213 1.406.142.41.345.76.609 1.047.264.289.58.51.95.664.373.15.789.225 1.247.225a3.27 3.27 0 0 0 1.242-.225 2.59 2.59 0 0 0 .95-.664c.263-.288.466-.637.608-1.046a4.32 4.32 0 0 0 .213-1.407Zm7.76-1.813v6.184h-.712c-.162 0-.268-.08-.316-.238l-.086-.62a4.181 4.181 0 0 1-.42.39c-.146.117-.302.218-.468.303a2.565 2.565 0 0 1-.53.19 2.38 2.38 0 0 1-.602.072 2.23 2.23 0 0 1-.901-.17 1.803 1.803 0 0 1-.646-.475 2.101 2.101 0 0 1-.395-.743 3.218 3.218 0 0 1-.134-.955v-3.938h1.193v3.938c0 .442.101.787.304 1.034.203.244.514.366.932.366.304 0 .588-.071.852-.213.264-.146.511-.345.742-.597v-4.528h1.187Zm2.777 1.186c.199-.405.438-.724.718-.955.28-.231.617-.347 1.01-.347.135 0 .26.016.378.049a.932.932 0 0 1 .317.133l-.08.895c-.028.11-.095.165-.2.165a1.6 1.6 0 0 1-.256-.03 1.744 1.744 0 0 0-.365-.037c-.19 0-.36.028-.505.085a1.15 1.15 0 0 0-.396.243 1.622 1.622 0 0 0-.304.396 3.81 3.81 0 0 0-.25.53v3.87H25.05v-6.184h.682c.13 0 .217.025.262.073.048.045.083.126.103.244l.073.87Zm17.67-3.743-2.727 8.74h-1.169l-2.13-6.482a3.055 3.055 0 0 1-.128-.468 6.471 6.471 0 0 1-.128.468l-2.155 6.483h-1.162l-2.727-8.741h1.083a.47.47 0 0 1 .286.085.37.37 0 0 1 .152.22l1.723 5.849c.032.114.06.237.085.371.029.134.057.274.085.42.029-.146.057-.286.086-.42.032-.134.069-.258.11-.371l1.971-5.85a.427.427 0 0 1 .153-.213.464.464 0 0 1 .286-.091h.371a.443.443 0 0 1 .438.304l1.966 5.85c.073.223.138.477.195.76.049-.28.102-.533.158-.76l1.73-5.85a.383.383 0 0 1 .151-.213.464.464 0 0 1 .286-.091h1.01Zm2.927 2.46c.454 0 .864.074 1.23.224.369.146.681.36.937.64.26.275.459.61.597 1.004.137.39.206.828.206 1.315 0 .486-.069.927-.206 1.32a2.79 2.79 0 0 1-.597 1.005 2.585 2.585 0 0 1-.938.639c-.365.146-.775.22-1.229.22a3.35 3.35 0 0 1-1.242-.22 2.657 2.657 0 0 1-.937-.64c-.26-.275-.46-.61-.603-1.004a3.976 3.976 0 0 1-.207-1.32c0-.487.07-.926.207-1.315.142-.394.343-.729.603-1.005.26-.28.572-.493.937-.639.37-.15.783-.225 1.242-.225Zm0 5.44c.584 0 1.02-.196 1.309-.59.288-.393.432-.947.432-1.661 0-.715-.144-1.268-.432-1.662-.288-.398-.725-.597-1.309-.597-.593 0-1.035.2-1.327.597-.288.394-.432.947-.432 1.662 0 .714.144 1.268.432 1.661.292.394.735.59 1.327.59Zm5.415-4.157c.2-.405.439-.724.719-.955.28-.231.616-.347 1.01-.347.134 0 .26.016.377.049a.934.934 0 0 1 .317.133l-.08.895c-.027.11-.094.165-.2.165-.057 0-.142-.01-.256-.03a1.744 1.744 0 0 0-.365-.037c-.19 0-.359.028-.505.085a1.15 1.15 0 0 0-.396.243 1.621 1.621 0 0 0-.304.396c-.09.154-.173.33-.25.53v3.87h-1.187v-6.184h.682c.13 0 .217.025.262.073.049.045.083.126.103.244l.073.87Zm4.556-3.987v8.985h-1.193V7.363h1.193Zm5.682 4.298c-.195-.256-.406-.434-.633-.536a1.805 1.805 0 0 0-.755-.152c-.543 0-.965.197-1.266.59-.296.39-.444.96-.444 1.71 0 .395.032.731.097 1.011.07.276.167.503.293.682.13.175.288.304.474.39.187.08.398.121.633.121.345 0 .644-.077.895-.23.252-.155.487-.372.706-.652V11.66Zm1.193-4.298v8.985h-.718c-.166 0-.27-.08-.31-.238l-.104-.712a3.31 3.31 0 0 1-.9.755c-.334.187-.719.28-1.157.28-.353 0-.674-.069-.962-.207a2.037 2.037 0 0 1-.73-.602 2.923 2.923 0 0 1-.47-.993 5.075 5.075 0 0 1-.163-1.357c0-.459.06-.885.182-1.278.122-.394.298-.735.53-1.023.231-.288.511-.513.84-.676.328-.166.7-.25 1.114-.25.373 0 .69.062.95.183.263.122.498.295.705.518V7.363h1.193Zm-44.668 15.8v6.185h-1.187v-6.184h1.187Zm.225-1.91c0 .109-.022.214-.067.316a.85.85 0 0 1-.444.438.846.846 0 0 1-.627 0 .96.96 0 0 1-.262-.177.958.958 0 0 1-.177-.261.844.844 0 0 1 0-.633.85.85 0 0 1 .177-.262.806.806 0 0 1 .262-.177.778.778 0 0 1 .627 0c.101.041.188.1.261.177a.801.801 0 0 1 .25.578Zm2.607 2.769c.134-.142.274-.272.42-.39a2.564 2.564 0 0 1 .992-.493c.191-.049.394-.073.609-.073.34 0 .64.057.895.17.26.114.477.274.651.481.175.203.306.449.396.737.089.288.134.607.134.956v3.938H24.68V25.41c0-.443-.102-.786-.305-1.03-.203-.247-.513-.37-.931-.37-.304 0-.59.073-.858.219-.264.142-.51.337-.737.584v4.535h-1.187v-6.184h.712c.167 0 .27.079.31.237l.092.62Zm16.648.955c0 .654-.105 1.248-.316 1.784a3.976 3.976 0 0 1-.883 1.382 3.995 3.995 0 0 1-1.37.888 4.763 4.763 0 0 1-1.771.317h-3.287v-8.741h3.287c.65 0 1.24.105 1.771.317.532.21.988.509 1.37.894.381.382.675.842.883 1.382a4.81 4.81 0 0 1 .316 1.777Zm-1.327 0c0-.519-.071-.984-.213-1.393a2.896 2.896 0 0 0-.609-1.047 2.53 2.53 0 0 0-.95-.658 3.271 3.271 0 0 0-1.241-.225h-1.984V28.3h1.984c.459 0 .872-.075 1.242-.225.373-.15.69-.368.95-.652.263-.288.466-.637.608-1.047.142-.41.213-.876.213-1.4Zm5.887 1.626a8.699 8.699 0 0 0-1.23.115c-.337.057-.61.134-.822.232-.21.097-.363.213-.456.347a.733.733 0 0 0-.14.438c0 .154.024.288.073.402.053.11.122.2.207.273.09.07.193.12.31.153.118.032.246.048.384.048a2.108 2.108 0 0 0 .931-.207c.134-.069.262-.152.384-.25.121-.097.241-.208.359-.334v-1.217Zm-3.482-2.575a3.55 3.55 0 0 1 1.12-.737c.406-.162.85-.243 1.333-.243.353 0 .665.059.937.176.272.114.502.274.688.481.187.207.327.455.42.743.098.288.146.607.146.956v3.944h-.53a.529.529 0 0 1-.267-.055.416.416 0 0 1-.146-.22l-.128-.54a5.553 5.553 0 0 1-.469.389c-.154.11-.316.205-.487.286a2.513 2.513 0 0 1-.535.176c-.191.04-.402.061-.633.061-.244 0-.473-.032-.688-.097a1.484 1.484 0 0 1-.931-.828 1.816 1.816 0 0 1-.134-.724c0-.244.065-.477.194-.7.134-.228.35-.43.646-.609.3-.179.69-.325 1.168-.438.483-.114 1.076-.179 1.778-.195v-.45c0-.467-.1-.816-.299-1.047-.198-.232-.49-.347-.876-.347-.26 0-.479.032-.657.097a2.511 2.511 0 0 0-.457.22c-.126.076-.237.147-.335.212a.504.504 0 0 1-.292.098.35.35 0 0 1-.213-.067.579.579 0 0 1-.14-.159l-.213-.383Zm8.086 5.417c-.5 0-.885-.14-1.157-.42-.268-.28-.401-.68-.401-1.199v-3.7h-.719a.267.267 0 0 1-.176-.062c-.045-.044-.067-.11-.067-.194v-.481l1.004-.14.268-1.845a.28.28 0 0 1 .091-.158c.049-.04.11-.06.183-.06h.602v2.075h1.754v.864h-1.754v3.622c0 .243.06.426.177.548a.639.639 0 0 0 .462.176c.11 0 .203-.014.28-.042.082-.029.15-.06.207-.092.057-.036.106-.069.147-.097a.198.198 0 0 1 .11-.043c.04 0 .07.01.09.03a.265.265 0 0 1 .074.086l.352.572a2.047 2.047 0 0 1-.693.414 2.421 2.421 0 0 1-.834.146Zm5.798-2.842a8.7 8.7 0 0 0-1.23.115c-.336.057-.61.134-.821.232-.211.097-.363.213-.457.347a.733.733 0 0 0-.14.438c0 .154.025.288.073.402.053.11.122.2.207.273.09.07.193.12.31.153.118.032.246.048.384.048a2.108 2.108 0 0 0 .932-.207c.133-.069.261-.152.383-.25.122-.097.242-.208.36-.334v-1.217Zm-3.481-2.575a3.547 3.547 0 0 1 1.12-.737c.405-.162.85-.243 1.332-.243.354 0 .666.059.938.176.272.114.501.274.688.481.186.207.326.455.42.743.097.288.146.607.146.956v3.944h-.53a.529.529 0 0 1-.268-.055.417.417 0 0 1-.146-.22l-.128-.54a5.537 5.537 0 0 1-.468.389c-.154.11-.317.205-.487.286a2.516 2.516 0 0 1-.536.176c-.19.04-.401.061-.633.061-.243 0-.473-.032-.688-.097a1.487 1.487 0 0 1-.931-.828 1.818 1.818 0 0 1-.134-.724c0-.244.065-.477.195-.7.134-.228.349-.43.645-.609.3-.179.69-.325 1.169-.438.483-.114 1.075-.179 1.777-.195v-.45c0-.467-.1-.816-.298-1.047-.199-.232-.491-.347-.877-.347-.26 0-.478.032-.657.097a2.515 2.515 0 0 0-.456.22c-.126.076-.238.147-.335.212a.504.504 0 0 1-.292.098.35.35 0 0 1-.214-.067.579.579 0 0 1-.14-.159l-.212-.383Z"/></svg></g><a href="http://localhost:3030/grapher/MPI-vs-Consumption" style="font-family:&#x27;Playfair Display&#x27;, Georgia, &#x27;Times New Roman&#x27;, &#x27;Liberation Serif&#x27;, serif" target="_blank" rel="noopener"><text font-size="18.00" font-weight="400" x="16.0" y="32.6" fill="#4E4E4E"><tspan x="16" y="32.56">How does extreme monetary poverty compare to multidimensional poverty?, 2019</tspan></text></a><text x="16.0" y="51.4" style="font-size:12px;line-height:1.2" fill="#4E4E4E"><tspan x="16" y="51.4">Multidimensional poverty is defined as being deprived in a range of health, education and living standards indicators. Extreme poverty is</tspan><tspan x="16" y="65.8">defined as living below the International Poverty Line of $2.15 per day.</tspan></text></g><g class="ScatterPlot"><g class="DualAxisView"><g class="HorizontalAxis"><text font-size="11.20" x="287.4" y="546.3"><tspan x="287.372" y="546.3439999999999">Share in multidimensional poverty</tspan></text><text x="71.144" y="526.5999999999999" fill="#666" text-anchor="start" font-size="14.4">0%</text><text x="149.1" y="526.5999999999999" fill="#666" text-anchor="middle" font-size="14.4">10%</text><text x="227" y="526.5999999999999" fill="#666" text-anchor="middle" font-size="14.4">20%</text><text x="305" y="526.5999999999999" fill="#666" text-anchor="middle" font-size="14.4">30%</text><text x="383" y="526.5999999999999" fill="#666" text-anchor="middle" font-size="14.4">40%</text><text x="460.9" y="526.5999999999999" fill="#666" text-anchor="middle" font-size="14.4">50%</text><text x="538.9" y="526.5999999999999" fill="#666" text-anchor="middle" font-size="14.4">60%</text><text x="616.8" y="526.5999999999999" fill="#666" text-anchor="middle" font-size="14.4">70%</text><text x="694.8" y="526.5999999999999" fill="#666" text-anchor="middle" font-size="14.4">80%</text></g><g class="VerticalAxis"><text font-size="11.20" x="-375.0" y="25.7" transform="rotate(-90)"><tspan x="-374.976" y="25.744">Share in extreme poverty</tspan></text><text x="66.14" y="507.2" dy=".32em" text-anchor="end" fill="#666" font-size="14.4">0%</text><text x="66.14" y="446.6" dy=".32em" text-anchor="end" fill="#666" font-size="14.4">10%</text><text x="66.14" y="386" dy=".32em" text-anchor="end" fill="#666" font-size="14.4">20%</text><text x="66.14" y="325.4" dy=".32em" text-anchor="end" fill="#666" font-size="14.4">30%</text><text x="66.14" y="264.8" dy=".32em" text-anchor="end" fill="#666" font-size="14.4">40%</text><text x="66.14" y="204.2" dy=".32em" text-anchor="end" fill="#666" font-size="14.4">50%</text><text x="66.14" y="143.6" dy=".32em" text-anchor="end" fill="#666" font-size="14.4">60%</text><text x="66.14" y="83" dy=".32em" text-anchor="end" fill="#666" font-size="14.4">70%</text></g><g class="AxisGridLines horizontalLines"><line x1="71.14" y1="507.2" x2="727.30" y2="507.2" stroke="#999"></line><line x1="71.14" y1="445.7" x2="727.30" y2="445.7" stroke="#ddd" stroke-dasharray="3,2"></line><line x1="71.14" y1="384.3" x2="727.30" y2="384.3" stroke="#ddd" stroke-dasharray="3,2"></line><line x1="71.14" y1="322.8" x2="727.30" y2="322.8" stroke="#ddd" stroke-dasharray="3,2"></line><line x1="71.14" y1="261.4" x2="727.30" y2="261.4" stroke="#ddd" stroke-dasharray="3,2"></line><line x1="71.14" y1="199.9" x2="727.30" y2="199.9" stroke="#ddd" stroke-dasharray="3,2"></line><line x1="71.14" y1="138.4" x2="727.30" y2="138.4" stroke="#ddd" stroke-dasharray="3,2"></line><line x1="71.14" y1="77" x2="727.30" y2="77" stroke="#ddd" stroke-dasharray="3,2"></line></g><g class="AxisGridLines verticalLines"><line x1="71.1" y1="507.20" x2="71.1" y2="76.60" stroke="#999"></line><line x1="149.1" y1="507.20" x2="149.1" y2="76.60" stroke="#ddd" stroke-dasharray="3,2"></line><line x1="227" y1="507.20" x2="227" y2="76.60" stroke="#ddd" stroke-dasharray="3,2"></line><line x1="305" y1="507.20" x2="305" y2="76.60" stroke="#ddd" stroke-dasharray="3,2"></line><line x1="383" y1="507.20" x2="383" y2="76.60" stroke="#ddd" stroke-dasharray="3,2"></line><line x1="460.9" y1="507.20" x2="460.9" y2="76.60" stroke="#ddd" stroke-dasharray="3,2"></line><line x1="538.9" y1="507.20" x2="538.9" y2="76.60" stroke="#ddd" stroke-dasharray="3,2"></line><line x1="616.8" y1="507.20" x2="616.8" y2="76.60" stroke="#ddd" stroke-dasharray="3,2"></line><line x1="694.8" y1="507.20" x2="694.8" y2="76.60" stroke="#ddd" stroke-dasharray="3,2"></line></g></g><g class="comparisonLine"><defs><clipPath id="axisBounds-1"><rect x="71.144" y="76.6" width="656.16" height="430.59999999999997"></rect></clipPath></defs><path style="opacity:0.9;fill:none;stroke:#ccc;stroke-dasharray:2 2" id="path-1" d="M71.1,507.2L72.5,506.2L73.8,505.2L75.1,504.1L76.4,503.1L77.7,502.1L79,501.1L80.3,500.1L81.6,499L83,498L84.3,497L85.6,496L86.9,495L88.2,493.9L89.5,492.9L90.8,491.9L92.1,490.9L93.5,489.9L94.8,488.8L96.1,487.8L97.4,486.8L98.7,485.8L100,484.8L101.3,483.7L102.6,482.7L104,481.7L105.3,480.7L106.6,479.7L107.9,478.6L109.2,477.6L110.5,476.6L111.8,475.6L113.1,474.6L114.5,473.5L115.8,472.5L117.1,471.5L118.4,470.5L119.7,469.4L121,468.4L122.3,467.4L123.6,466.4L124.9,465.4L126.3,464.3L127.6,463.3L128.9,462.3L130.2,461.3L131.5,460.3L132.8,459.2L134.1,458.2L135.4,457.2L136.8,456.2L138.1,455.2L139.4,454.1L140.7,453.1L142,452.1L143.3,451.1L144.6,450.1L145.9,449L147.3,448L148.6,447L149.9,446L151.2,445L152.5,443.9L153.8,442.9L155.1,441.9L156.4,440.9L157.8,439.9L159.1,438.8L160.4,437.8L161.7,436.8L163,435.8L164.3,434.8L165.6,433.7L166.9,432.7L168.3,431.7L169.6,430.7L170.9,429.7L172.2,428.6L173.5,427.6L174.8,426.6L176.1,425.6L177.4,424.6L178.8,423.5L180.1,422.5L181.4,421.5L182.7,420.5L184,419.5L185.3,418.4L186.6,417.4L187.9,416.4L189.3,415.4L190.6,414.4L191.9,413.3L193.2,412.3L194.5,411.3L195.8,410.3L197.1,409.3L198.4,408.2L199.8,407.2L201.1,406.2L202.4,405.2L203.7,404.2L205,403.1L206.3,402.1L207.6,401.1L208.9,400.1L210.2,399.1L211.6,398L212.9,397L214.2,396L215.5,395L216.8,393.9L218.1,392.9L219.4,391.9L220.7,390.9L222.1,389.9L223.4,388.8L224.7,387.8L226,386.8L227.3,385.8L228.6,384.8L229.9,383.7L231.2,382.7L232.6,381.7L233.9,380.7L235.2,379.7L236.5,378.6L237.8,377.6L239.1,376.6L240.4,375.6L241.7,374.6L243.1,373.5L244.4,372.5L245.7,371.5L247,370.5L248.3,369.5L249.6,368.4L250.9,367.4L252.2,366.4L253.6,365.4L254.9,364.4L256.2,363.3L257.5,362.3L258.8,361.3L260.1,360.3L261.4,359.3L262.7,358.2L264.1,357.2L265.4,356.2L266.7,355.2L268,354.2L269.3,353.1L270.6,352.1L271.9,351.1L273.2,350.1L274.6,349.1L275.9,348L277.2,347L278.5,346L279.8,345L281.1,344L282.4,342.9L283.7,341.9L285.1,340.9L286.4,339.9L287.7,338.9L289,337.8L290.3,336.8L291.6,335.8L292.9,334.8L294.2,333.8L295.6,332.7L296.9,331.7L298.2,330.7L299.5,329.7L300.8,328.7L302.1,327.6L303.4,326.6L304.7,325.6L306,324.6L307.4,323.5L308.7,322.5L310,321.5L311.3,320.5L312.6,319.5L313.9,318.4L315.2,317.4L316.5,316.4L317.9,315.4L319.2,314.4L320.5,313.3L321.8,312.3L323.1,311.3L324.4,310.3L325.7,309.3L327,308.2L328.4,307.2L329.7,306.2L331,305.2L332.3,304.2L333.6,303.1L334.9,302.1L336.2,301.1L337.5,300.1L338.9,299.1L340.2,298L341.5,297L342.8,296L344.1,295L345.4,294L346.7,292.9L348,291.9L349.4,290.9L350.7,289.9L352,288.9L353.3,287.8L354.6,286.8L355.9,285.8L357.2,284.8L358.5,283.8L359.9,282.7L361.2,281.7L362.5,280.7L363.8,279.7L365.1,278.7L366.4,277.6L367.7,276.6L369,275.6L370.4,274.6L371.7,273.6L373,272.5L374.3,271.5L375.6,270.5L376.9,269.5L378.2,268.5L379.5,267.4L380.9,266.4L382.2,265.4L383.5,264.4L384.8,263.4L386.1,262.3L387.4,261.3L388.7,260.3L390,259.3L391.4,258.3L392.7,257.2L394,256.2L395.3,255.2L396.6,254.2L397.9,253.2L399.2,252.1L400.5,251.1L401.8,250.1L403.2,249.1L404.5,248L405.8,247L407.1,246L408.4,245L409.7,244L411,242.9L412.3,241.9L413.7,240.9L415,239.9L416.3,238.9L417.6,237.8L418.9,236.8L420.2,235.8L421.5,234.8L422.8,233.8L424.2,232.7L425.5,231.7L426.8,230.7L428.1,229.7L429.4,228.7L430.7,227.6L432,226.6L433.3,225.6L434.7,224.6L436,223.6L437.3,222.5L438.6,221.5L439.9,220.5L441.2,219.5L442.5,218.5L443.8,217.4L445.2,216.4L446.5,215.4L447.8,214.4L449.1,213.4L450.4,212.3L451.7,211.3L453,210.3L454.3,209.3L455.7,208.3L457,207.2L458.3,206.2L459.6,205.2L460.9,204.2L462.2,203.2L463.5,202.1L464.8,201.1L466.2,200.1L467.5,199.1L468.8,198.1L470.1,197L471.4,196L472.7,195L474,194L475.3,193L476.7,191.9L478,190.9L479.3,189.9L480.6,188.9L481.9,187.9L483.2,186.8L484.5,185.8L485.8,184.8L487.1,183.8L488.5,182.8L489.8,181.7L491.1,180.7L492.4,179.7L493.7,178.7L495,177.6L496.3,176.6L497.6,175.6L499,174.6L500.3,173.6L501.6,172.5L502.9,171.5L504.2,170.5L505.5,169.5L506.8,168.5L508.1,167.4L509.5,166.4L510.8,165.4L512.1,164.4L513.4,163.4L514.7,162.3L516,161.3L517.3,160.3L518.6,159.3L520,158.3L521.3,157.2L522.6,156.2L523.9,155.2L525.2,154.2L526.5,153.2L527.8,152.1L529.1,151.1L530.5,150.1L531.8,149.1L533.1,148.1L534.4,147L535.7,146L537,145L538.3,144L539.6,143L541,141.9L542.3,140.9L543.6,139.9L544.9,138.9L546.2,137.9L547.5,136.8L548.8,135.8L550.1,134.8L551.5,133.8L552.8,132.8L554.1,131.7L555.4,130.7L556.7,129.7L558,128.7L559.3,127.7L560.6,126.6L562,125.6L563.3,124.6L564.6,123.6L565.9,122.6L567.2,121.5L568.5,120.5L569.8,119.5L571.1,118.5L572.5,117.5L573.8,116.4L575.1,115.4L576.4,114.4L577.7,113.4L579,112.4L580.3,111.3L581.6,110.3L582.9,109.3L584.3,108.3L585.6,107.3L586.9,106.2L588.2,105.2L589.5,104.2L590.8,103.2L592.1,102.1L593.4,101.1L594.8,100.1L596.1,99.1L597.4,98.1L598.7,97L600,96L601.3,95L602.6,94L603.9,93L605.3,91.9L606.6,90.9L607.9,89.9L609.2,88.9L610.5,87.9L611.8,86.8L613.1,85.8L614.4,84.8L615.8,83.8L617.1,82.8" clip-path="url(#axisBounds-1)"></path><text style="font-size:80%;opacity:0.9;text-anchor:end;fill:#999" clip-path="url(#axisBounds-1)"><textPath baseline-shift="-0.2rem" href="#path-1" startOffset="90%" style="fill:#fff;stroke:#fff;stroke-linecap:round;stroke-linejoin:round;stroke-width:.25em">1:1</textPath><textPath baseline-shift="-0.2rem" href="#path-1" startOffset="90%">1:1</textPath></text></g><g class="PointsWithLabels clickable" clip-path="url(#scatterBounds-2)"><rect x="71.144" y="76.6" width="656.16" height="430.59999999999997" fill="rgba(255,255,255,0)"></rect><defs><clipPath id="scatterBounds-2"><rect x="61.144000000000005" y="66.6" width="676.16" height="450.59999999999997"></rect></clipPath></defs><g class="key-China"><circle cx="101.00" cy="494.00" r="18.00" fill="#00847E" opacity="0.8" stroke="#333" stroke-width="0.5" style="transition:fill 250ms"></circle></g><g class="key-India"><circle cx="198.00" cy="445.00" r="17.75" fill="#00847E" opacity="0.8" stroke="#333" stroke-width="0.5" style="transition:fill 250ms"></circle></g><g class="key-Indonesia"><circle cx="99.00" cy="466.00" r="7.84" fill="#00847E" opacity="0.8" stroke="#666" stroke-width="0.5" style="transition:fill 250ms"></circle></g><g class="key-Pakistan"><circle cx="370.00" cy="476.00" r="7.13" fill="#00847E" opacity="0.8" stroke="#333" stroke-width="0.5" style="transition:fill 250ms"></circle></g><g class="key-Brazil"><circle cx="101.00" cy="483.00" r="6.95" fill="#883039" opacity="0.8" stroke="#666" stroke-width="0.5" style="transition:fill 250ms"></circle></g><g class="key-Nigeria"><circle cx="433.00" cy="317.00" r="6.81" fill="#A2559C" opacity="0.8" stroke="#333" stroke-width="0.5" style="transition:fill 250ms"></circle></g><g class="key-Bangladesh"><circle cx="263.00" cy="424.00" r="6.14" fill="#00847E" opacity="0.8" stroke="#333" stroke-width="0.5" style="transition:fill 250ms"></circle></g><g class="key-Mexico"><circle cx="128.00" cy="488.00" r="5.34" fill="#E56E5A" opacity="0.8" stroke="#666" stroke-width="0.5" style="transition:fill 250ms"></circle></g><g class="key-Ethiopia"><circle cx="607.00" cy="341.00" r="5.10" fill="#A2559C" opacity="0.8" stroke="#333" stroke-width="0.5" style="transition:fill 250ms"></circle></g><g class="key-Philippines"><circle cx="116.00" cy="476.00" r="5.02" fill="#00847E" opacity="0.8" stroke="#666" stroke-width="0.5" style="transition:fill 250ms"></circle></g><g class="key-Egypt"><circle cx="112.00" cy="501.00" r="4.91" fill="#A2559C" opacity="0.8" stroke="#333" stroke-width="0.5" style="transition:fill 250ms"></circle></g><g class="key-Vietnam"><circle cx="86.00" cy="499.00" r="4.67" fill="#00847E" opacity="0.8" stroke="#666" stroke-width="0.5" style="transition:fill 250ms"></circle></g><g class="key-Thailand"><circle cx="75.00" cy="506.00" r="4.03" fill="#00847E" opacity="0.8" stroke="#666" stroke-width="0.5" style="transition:fill 250ms"></circle></g><g class="key-Tanzania"><circle cx="516.00" cy="230.00" r="3.69" fill="#A2559C" opacity="0.8" stroke="#333" stroke-width="0.5" style="transition:fill 250ms"></circle></g><g class="key-South-Africa"><circle cx="119.00" cy="381.00" r="3.64" fill="#A2559C" opacity="0.8" stroke="#333" stroke-width="0.5" style="transition:fill 250ms"></circle></g><g class="key-Myanmar"><circle cx="369.00" cy="469.00" r="3.48" fill="#00847E" opacity="0.8" stroke="#666" stroke-width="0.5" style="transition:fill 250ms"></circle></g><g class="key-Kenya"><circle cx="363.00" cy="326.00" r="3.41" fill="#A2559C" opacity="0.8" stroke="#333" stroke-width="0.5" style="transition:fill 250ms"></circle></g><g class="key-Colombia"><circle cx="108.00" cy="476.00" r="3.38" fill="#883039" opacity="0.8" stroke="#666" stroke-width="0.5" style="transition:fill 250ms"></circle></g><g class="key-Sudan"><circle cx="479.00" cy="413.00" r="3.14" fill="#A2559C" opacity="0.8" stroke="#333" stroke-width="0.5" style="transition:fill 250ms"></circle></g><g class="key-Uganda"><circle cx="516.00" cy="244.00" r="3.13" fill="#A2559C" opacity="0.8" stroke="#666" stroke-width="0.5" style="transition:fill 250ms"></circle></g><g class="key-Peru"><circle cx="128.00" cy="488.00" r="2.73" fill="#883039" opacity="0.8" stroke="#666" stroke-width="0.5" style="transition:fill 250ms"></circle></g><g class="key-Angola"><circle cx="469.00" cy="315.00" r="2.72" fill="#A2559C" opacity="0.8" stroke="#666" stroke-width="0.5" style="transition:fill 250ms"></circle></g><g class="key-Yemen"><circle cx="448.00" cy="385.00" r="2.68" fill="#00847E" opacity="0.8" stroke="#333" stroke-width="0.5" style="transition:fill 250ms"></circle></g><g class="key-Ghana"><circle cx="263.00" cy="351.00" r="2.68" fill="#A2559C" opacity="0.8" stroke="#333" stroke-width="0.5" style="transition:fill 250ms"></circle></g><g class="key-Cote-d__0027Ivoire"><circle cx="430.00" cy="301.00" r="2.44" fill="#A2559C" opacity="0.8" stroke="#666" stroke-width="0.5" style="transition:fill 250ms"></circle></g><g class="key-Cameroon"><circle cx="410.00" cy="349.00" r="2.42" fill="#A2559C" opacity="0.8" stroke="#333" stroke-width="0.5" style="transition:fill 250ms"></circle></g><g class="key-Sri-Lanka"><circle cx="93.00" cy="499.00" r="2.22" fill="#00847E" opacity="0.8" stroke="#666" stroke-width="0.5" style="transition:fill 250ms"></circle></g><g class="key-Mali"><circle cx="603.00" cy="416.00" r="2.16" fill="#A2559C" opacity="0.8" stroke="#333" stroke-width="0.5" style="transition:fill 250ms"></circle></g><g class="key-Malawi"><circle cx="460.00" cy="76.00" r="2.07" fill="#A2559C" opacity="0.8" stroke="#333" stroke-width="0.5" style="transition:fill 250ms"></circle></g><g class="key-Kazakhstan"><circle cx="74.00" cy="507.00" r="2.07" fill="#00847E" opacity="0.8" stroke="#666" stroke-width="0.5" style="transition:fill 250ms"></circle></g><g class="key-Zambia"><circle cx="444.00" cy="130.00" r="2.05" fill="#A2559C" opacity="0.8" stroke="#333" stroke-width="0.5" style="transition:fill 250ms"></circle></g><g class="key-Albania"><circle cx="76.00" cy="504.00" r="2.00" fill="#4C6A9C" opacity="0.8" stroke="#666" stroke-width="0.5" style="transition:fill 250ms"></circle></g><g class="key-Armenia"><circle cx="72.00" cy="500.00" r="2.00" fill="#00847E" opacity="0.8" stroke="#666" stroke-width="0.5" style="transition:fill 250ms"></circle></g><g class="key-Benin"><circle cx="591.00" cy="384.00" r="2.00" fill="#A2559C" opacity="0.8" stroke="#333" stroke-width="0.5" style="transition:fill 250ms"></circle></g><g class="key-Bolivia"><circle cx="141.00" cy="472.00" r="2.00" fill="#883039" opacity="0.8" stroke="#666" stroke-width="0.5" style="transition:fill 250ms"></circle></g><g class="key-Botswana"><circle cx="205.00" cy="412.00" r="2.00" fill="#A2559C" opacity="0.8" stroke="#666" stroke-width="0.5" style="transition:fill 250ms"></circle></g><g class="key-Chad"><circle cx="727.00" cy="317.00" r="2.00" fill="#A2559C" opacity="0.8" stroke="#333" stroke-width="0.5" style="transition:fill 250ms"></circle></g><g class="key-Comoros"><circle cx="361.00" cy="392.00" r="2.00" fill="#A2559C" opacity="0.8" stroke="#333" stroke-width="0.5" style="transition:fill 250ms"></circle></g><g class="key-Costa-Rica"><circle cx="75.00" cy="497.00" r="2.00" fill="#E56E5A" opacity="0.8" stroke="#666" stroke-width="0.5" style="transition:fill 250ms"></circle></g><g class="key-Dominican-Republic"><circle cx="88.00" cy="502.00" r="2.00" fill="#E56E5A" opacity="0.8" stroke="#666" stroke-width="0.5" style="transition:fill 250ms"></circle></g><g class="key-Ecuador"><circle cx="87.00" cy="486.00" r="2.00" fill="#883039" opacity="0.8" stroke="#666" stroke-width="0.5" style="transition:fill 250ms"></circle></g><g class="key-El-Salvador"><circle cx="132.00" cy="486.00" r="2.00" fill="#E56E5A" opacity="0.8" stroke="#666" stroke-width="0.5" style="transition:fill 250ms"></circle></g><g class="key-Eswatini"><circle cx="220.00" cy="285.00" r="2.00" fill="#A2559C" opacity="0.8" stroke="#333" stroke-width="0.5" style="transition:fill 250ms"></circle></g><g class="key-Gabon"><circle cx="192.00" cy="492.00" r="2.00" fill="#A2559C" opacity="0.8" stroke="#333" stroke-width="0.5" style="transition:fill 250ms"></circle></g><g class="key-Gambia"><circle cx="396.00" cy="425.00" r="2.00" fill="#A2559C" opacity="0.8" stroke="#333" stroke-width="0.5" style="transition:fill 250ms"></circle></g><g class="key-Georgia"><circle cx="73.00" cy="473.00" r="2.00" fill="#00847E" opacity="0.8" stroke="#666" stroke-width="0.5" style="transition:fill 250ms"></circle></g><g class="key-Guatemala"><circle cx="296.00" cy="448.00" r="2.00" fill="#E56E5A" opacity="0.8" stroke="#333" stroke-width="0.5" style="transition:fill 250ms"></circle></g><g class="key-Guinea"><circle cx="587.00" cy="422.00" r="2.00" fill="#A2559C" opacity="0.8" stroke="#666" stroke-width="0.5" style="transition:fill 250ms"></circle></g><g class="key-Guinea__002dBissau"><circle cx="573.00" cy="374.00" r="2.00" fill="#A2559C" opacity="0.8" stroke="#666" stroke-width="0.5" style="transition:fill 250ms"></circle></g><g class="key-Honduras"><circle cx="164.00" cy="428.00" r="2.00" fill="#E56E5A" opacity="0.8" stroke="#666" stroke-width="0.5" style="transition:fill 250ms"></circle></g><g class="key-Kiribati"><circle cx="225.00" cy="497.00" r="2.00" fill="#9A5129" opacity="0.8" stroke="#666" stroke-width="0.5" style="transition:fill 250ms"></circle></g><g class="key-Kyrgyzstan"><circle cx="74.00" cy="502.00" r="2.00" fill="#00847E" opacity="0.8" stroke="#666" stroke-width="0.5" style="transition:fill 250ms"></circle></g><g class="key-Laos"><circle cx="251.00" cy="463.00" r="2.00" fill="#00847E" opacity="0.8" stroke="#333" stroke-width="0.5" style="transition:fill 250ms"></circle></g><g class="key-Lesotho"><circle cx="224.00" cy="308.00" r="2.00" fill="#A2559C" opacity="0.8" stroke="#333" stroke-width="0.5" style="transition:fill 250ms"></circle></g><g class="key-Liberia"><circle cx="479.00" cy="337.00" r="2.00" fill="#A2559C" opacity="0.8" stroke="#333" stroke-width="0.5" style="transition:fill 250ms"></circle></g><g class="key-Maldives"><circle cx="77.00" cy="507.00" r="2.00" fill="#00847E" opacity="0.8" stroke="#666" stroke-width="0.5" style="transition:fill 250ms"></circle></g><g class="key-Mauritania"><circle cx="526.00" cy="467.00" r="2.00" fill="#A2559C" opacity="0.8" stroke="#333" stroke-width="0.5" style="transition:fill 250ms"></circle></g><g class="key-Mongolia"><circle cx="127.00" cy="502.00" r="2.00" fill="#00847E" opacity="0.8" stroke="#666" stroke-width="0.5" style="transition:fill 250ms"></circle></g><g class="key-Montenegro"><circle cx="80.00" cy="489.00" r="2.00" fill="#4C6A9C" opacity="0.8" stroke="#666" stroke-width="0.5" style="transition:fill 250ms"></circle></g><g class="key-Namibia"><circle cx="389.00" cy="411.00" r="2.00" fill="#A2559C" opacity="0.8" stroke="#666" stroke-width="0.5" style="transition:fill 250ms"></circle></g><g class="key-North-Macedonia"><circle cx="74.00" cy="486.00" r="2.00" fill="#4C6A9C" opacity="0.8" stroke="#666" stroke-width="0.5" style="transition:fill 250ms"></circle></g><g class="key-Palestine"><circle cx="75.00" cy="504.00" r="2.00" fill="#00847E" opacity="0.8" stroke="#666" stroke-width="0.5" style="transition:fill 250ms"></circle></g><g class="key-Paraguay"><circle cx="106.00" cy="496.00" r="2.00" fill="#883039" opacity="0.8" stroke="#666" stroke-width="0.5" style="transition:fill 250ms"></circle></g><g class="key-Rwanda"><circle cx="451.00" cy="187.00" r="2.00" fill="#A2559C" opacity="0.8" stroke="#333" stroke-width="0.5" style="transition:fill 250ms"></circle></g><g class="key-Saint-Lucia"><circle cx="86.00" cy="475.00" r="2.00" fill="#E56E5A" opacity="0.8" stroke="#666" stroke-width="0.5" style="transition:fill 250ms"></circle></g><g class="key-Sao-Tome-and-Principe"><circle cx="162.00" cy="411.00" r="2.00" fill="#A2559C" opacity="0.8" stroke="#666" stroke-width="0.5" style="transition:fill 250ms"></circle></g><g class="key-Senegal"><circle cx="467.00" cy="449.00" r="2.00" fill="#A2559C" opacity="0.8" stroke="#333" stroke-width="0.5" style="transition:fill 250ms"></circle></g><g class="key-Serbia"><circle cx="72.00" cy="506.00" r="2.00" fill="#4C6A9C" opacity="0.8" stroke="#333" stroke-width="0.5" style="transition:fill 250ms"></circle></g><g class="key-Seychelles"><circle cx="77.00" cy="504.00" r="2.00" fill="#A2559C" opacity="0.8" stroke="#666" stroke-width="0.5" style="transition:fill 250ms"></circle></g><g class="key-Sierra-Leone"><circle cx="532.00" cy="347.00" r="2.00" fill="#A2559C" opacity="0.8" stroke="#333" stroke-width="0.5" style="transition:fill 250ms"></circle></g><g class="key-Tajikistan"><circle cx="129.00" cy="469.00" r="2.00" fill="#00847E" opacity="0.8" stroke="#666" stroke-width="0.5" style="transition:fill 250ms"></circle></g><g class="key-Timor"><circle cx="447.00" cy="458.00" r="2.00" fill="#00847E" opacity="0.8" stroke="#666" stroke-width="0.5" style="transition:fill 250ms"></circle></g><g class="key-Togo"><circle cx="364.00" cy="334.00" r="2.00" fill="#A2559C" opacity="0.8" stroke="#666" stroke-width="0.5" style="transition:fill 250ms"></circle></g><g class="key-Tonga"><circle cx="78.00" cy="500.00" r="2.00" fill="#9A5129" opacity="0.8" stroke="#666" stroke-width="0.5" style="transition:fill 250ms"></circle></g><g class="key-Tunisia"><circle cx="77.00" cy="506.00" r="2.00" fill="#A2559C" opacity="0.8" stroke="#666" stroke-width="0.5" style="transition:fill 250ms"></circle></g><g class="key-Zimbabwe"><circle cx="272.00" cy="262.00" r="2.00" fill="#A2559C" opacity="0.8" stroke="#333" stroke-width="0.5" style="transition:fill 250ms"></circle></g><g class="backgroundLabels" fill="#333"><text x="101.00" y="475.00" font-size="14.30" font-weight="400" fill="#00847E" style="fill:#fff;stroke:#fff;stroke-linecap:round;stroke-linejoin:round;stroke-width:.25em">China</text><text x="101.00" y="475.00" font-size="14.30" font-weight="400" fill="#00847E" style="pointer-events:none">China</text><text x="198.00" y="426.25" font-size="14.25" font-weight="400" fill="#00847E" style="fill:#fff;stroke:#fff;stroke-linecap:round;stroke-linejoin:round;stroke-width:.25em">India</text><text x="198.00" y="426.25" font-size="14.25" font-weight="400" fill="#00847E" style="pointer-events:none">India</text><text x="370.00" y="467.87" font-size="12.31" font-weight="400" fill="#00847E" style="fill:#fff;stroke:#fff;stroke-linecap:round;stroke-linejoin:round;stroke-width:.25em">Pakistan</text><text x="370.00" y="467.87" font-size="12.31" font-weight="400" fill="#00847E" style="pointer-events:none">Pakistan</text><text x="433.00" y="309.19" font-size="12.25" font-weight="400" fill="#A2559C" style="fill:#fff;stroke:#fff;stroke-linecap:round;stroke-linejoin:round;stroke-width:.25em">Nigeria</text><text x="433.00" y="309.19" font-size="12.25" font-weight="400" fill="#A2559C" style="pointer-events:none">Nigeria</text><text x="263.00" y="416.86" font-size="12.13" font-weight="400" fill="#00847E" style="fill:#fff;stroke:#fff;stroke-linecap:round;stroke-linejoin:round;stroke-width:.25em">Bangladesh</text><text x="263.00" y="416.86" font-size="12.13" font-weight="400" fill="#00847E" style="pointer-events:none">Bangladesh</text><text x="607.00" y="334.90" font-size="11.93" font-weight="400" fill="#A2559C" style="fill:#fff;stroke:#fff;stroke-linecap:round;stroke-linejoin:round;stroke-width:.25em">Ethiopia</text><text x="607.00" y="334.90" font-size="11.93" font-weight="400" fill="#A2559C" style="pointer-events:none">Ethiopia</text><text x="112.00" y="495.09" font-size="11.90" font-weight="400" fill="#A2559C" style="fill:#fff;stroke:#fff;stroke-linecap:round;stroke-linejoin:round;stroke-width:.25em">Egypt</text><text x="112.00" y="495.09" font-size="11.90" font-weight="400" fill="#A2559C" style="pointer-events:none">Egypt</text><text x="516.00" y="225.31" font-size="11.68" font-weight="400" fill="#A2559C" style="fill:#fff;stroke:#fff;stroke-linecap:round;stroke-linejoin:round;stroke-width:.25em">Tanzania</text><text x="516.00" y="225.31" font-size="11.68" font-weight="400" fill="#A2559C" style="pointer-events:none">Tanzania</text><text x="119.00" y="376.36" font-size="11.67" font-weight="400" fill="#A2559C" style="fill:#fff;stroke:#fff;stroke-linecap:round;stroke-linejoin:round;stroke-width:.25em">South Africa</text><text x="119.00" y="376.36" font-size="11.67" font-weight="400" fill="#A2559C" style="pointer-events:none">South Africa</text><text x="363.00" y="321.59" font-size="11.62" font-weight="400" fill="#A2559C" style="fill:#fff;stroke:#fff;stroke-linecap:round;stroke-linejoin:round;stroke-width:.25em">Kenya</text><text x="363.00" y="321.59" font-size="11.62" font-weight="400" fill="#A2559C" style="pointer-events:none">Kenya</text><text x="479.00" y="408.86" font-size="11.58" font-weight="400" fill="#A2559C" style="fill:#fff;stroke:#fff;stroke-linecap:round;stroke-linejoin:round;stroke-width:.25em">Sudan</text><text x="479.00" y="408.86" font-size="11.58" font-weight="400" fill="#A2559C" style="pointer-events:none">Sudan</text><text x="448.00" y="381.32" font-size="11.49" font-weight="400" fill="#00847E" style="fill:#fff;stroke:#fff;stroke-linecap:round;stroke-linejoin:round;stroke-width:.25em">Yemen</text><text x="448.00" y="381.32" font-size="11.49" font-weight="400" fill="#00847E" style="pointer-events:none">Yemen</text><text x="263.00" y="347.32" font-size="11.49" font-weight="400" fill="#A2559C" style="fill:#fff;stroke:#fff;stroke-linecap:round;stroke-linejoin:round;stroke-width:.25em">Ghana</text><text x="263.00" y="347.32" font-size="11.49" font-weight="400" fill="#A2559C" style="pointer-events:none">Ghana</text><text x="410.00" y="345.58" font-size="11.44" font-weight="400" fill="#A2559C" style="fill:#fff;stroke:#fff;stroke-linecap:round;stroke-linejoin:round;stroke-width:.25em">Cameroon</text><text x="410.00" y="345.58" font-size="11.44" font-weight="400" fill="#A2559C" style="pointer-events:none">Cameroon</text><text x="603.00" y="412.84" font-size="11.40" font-weight="400" fill="#A2559C" style="fill:#fff;stroke:#fff;stroke-linecap:round;stroke-linejoin:round;stroke-width:.25em">Mali</text><text x="603.00" y="412.84" font-size="11.40" font-weight="400" fill="#A2559C" style="pointer-events:none">Mali</text><text x="460.00" y="87.98" font-size="11.38" font-weight="400" fill="#A2559C" style="fill:#fff;stroke:#fff;stroke-linecap:round;stroke-linejoin:round;stroke-width:.25em">Malawi</text><text x="460.00" y="87.98" font-size="11.38" font-weight="400" fill="#A2559C" style="pointer-events:none">Malawi</text><text x="444.00" y="126.95" font-size="11.38" font-weight="400" fill="#A2559C" style="fill:#fff;stroke:#fff;stroke-linecap:round;stroke-linejoin:round;stroke-width:.25em">Zambia</text><text x="444.00" y="126.95" font-size="11.38" font-weight="400" fill="#A2559C" style="pointer-events:none">Zambia</text><text x="591.00" y="381.00" font-size="11.31" font-weight="400" fill="#A2559C" style="fill:#fff;stroke:#fff;stroke-linecap:round;stroke-linejoin:round;stroke-width:.25em">Benin</text><text x="591.00" y="381.00" font-size="11.31" font-weight="400" fill="#A2559C" style="pointer-events:none">Benin</text><text x="699.76" y="314.00" font-size="11.35" font-weight="400" fill="#A2559C" style="fill:#fff;stroke:#fff;stroke-linecap:round;stroke-linejoin:round;stroke-width:.25em">Chad</text><text x="699.76" y="314.00" font-size="11.35" font-weight="400" fill="#A2559C" style="pointer-events:none">Chad</text><text x="361.00" y="389.00" font-size="11.08" font-weight="400" fill="#A2559C" style="fill:#fff;stroke:#fff;stroke-linecap:round;stroke-linejoin:round;stroke-width:.25em">Comoros</text><text x="361.00" y="389.00" font-size="11.08" font-weight="400" fill="#A2559C" style="pointer-events:none">Comoros</text><text x="220.00" y="282.00" font-size="11.09" font-weight="400" fill="#A2559C" style="fill:#fff;stroke:#fff;stroke-linecap:round;stroke-linejoin:round;stroke-width:.25em">Eswatini</text><text x="220.00" y="282.00" font-size="11.09" font-weight="400" fill="#A2559C" style="pointer-events:none">Eswatini</text><text x="192.00" y="489.00" font-size="11.13" font-weight="400" fill="#A2559C" style="fill:#fff;stroke:#fff;stroke-linecap:round;stroke-linejoin:round;stroke-width:.25em">Gabon</text><text x="192.00" y="489.00" font-size="11.13" font-weight="400" fill="#A2559C" style="pointer-events:none">Gabon</text><text x="396.00" y="422.00" font-size="11.14" font-weight="400" fill="#A2559C" style="fill:#fff;stroke:#fff;stroke-linecap:round;stroke-linejoin:round;stroke-width:.25em">Gambia</text><text x="396.00" y="422.00" font-size="11.14" font-weight="400" fill="#A2559C" style="pointer-events:none">Gambia</text><text x="296.00" y="445.00" font-size="11.36" font-weight="400" fill="#E56E5A" style="fill:#fff;stroke:#fff;stroke-linecap:round;stroke-linejoin:round;stroke-width:.25em">Guatemala</text><text x="296.00" y="445.00" font-size="11.36" font-weight="400" fill="#E56E5A" style="pointer-events:none">Guatemala</text><text x="251.00" y="460.00" font-size="11.24" font-weight="400" fill="#00847E" style="fill:#fff;stroke:#fff;stroke-linecap:round;stroke-linejoin:round;stroke-width:.25em">Laos</text><text x="251.00" y="460.00" font-size="11.24" font-weight="400" fill="#00847E" style="pointer-events:none">Laos</text><text x="224.00" y="305.00" font-size="11.13" font-weight="400" fill="#A2559C" style="fill:#fff;stroke:#fff;stroke-linecap:round;stroke-linejoin:round;stroke-width:.25em">Lesotho</text><text x="224.00" y="305.00" font-size="11.13" font-weight="400" fill="#A2559C" style="pointer-events:none">Lesotho</text><text x="479.00" y="334.00" font-size="11.20" font-weight="400" fill="#A2559C" style="fill:#fff;stroke:#fff;stroke-linecap:round;stroke-linejoin:round;stroke-width:.25em">Liberia</text><text x="479.00" y="334.00" font-size="11.20" font-weight="400" fill="#A2559C" style="pointer-events:none">Liberia</text><text x="526.00" y="464.00" font-size="11.18" font-weight="400" fill="#A2559C" style="fill:#fff;stroke:#fff;stroke-linecap:round;stroke-linejoin:round;stroke-width:.25em">Mauritania</text><text x="526.00" y="464.00" font-size="11.18" font-weight="400" fill="#A2559C" style="pointer-events:none">Mauritania</text><text x="451.00" y="184.00" font-size="11.31" font-weight="400" fill="#A2559C" style="fill:#fff;stroke:#fff;stroke-linecap:round;stroke-linejoin:round;stroke-width:.25em">Rwanda</text><text x="451.00" y="184.00" font-size="11.31" font-weight="400" fill="#A2559C" style="pointer-events:none">Rwanda</text><text x="467.00" y="446.00" font-size="11.35" font-weight="400" fill="#A2559C" style="fill:#fff;stroke:#fff;stroke-linecap:round;stroke-linejoin:round;stroke-width:.25em">Senegal</text><text x="467.00" y="446.00" font-size="11.35" font-weight="400" fill="#A2559C" style="pointer-events:none">Senegal</text><text x="72.00" y="503.00" font-size="11.24" font-weight="400" fill="#4C6A9C" style="fill:#fff;stroke:#fff;stroke-linecap:round;stroke-linejoin:round;stroke-width:.25em">Serbia</text><text x="72.00" y="503.00" font-size="11.24" font-weight="400" fill="#4C6A9C" style="pointer-events:none">Serbia</text><text x="532.00" y="344.00" font-size="11.25" font-weight="400" fill="#A2559C" style="fill:#fff;stroke:#fff;stroke-linecap:round;stroke-linejoin:round;stroke-width:.25em">Sierra Leone</text><text x="532.00" y="344.00" font-size="11.25" font-weight="400" fill="#A2559C" style="pointer-events:none">Sierra Leone</text><text x="272.00" y="259.00" font-size="11.34" font-weight="400" fill="#A2559C" style="fill:#fff;stroke:#fff;stroke-linecap:round;stroke-linejoin:round;stroke-width:.25em">Zimbabwe</text><text x="272.00" y="259.00" font-size="11.34" font-weight="400" fill="#A2559C" style="pointer-events:none">Zimbabwe</text></g></g><g class="ScatterColorLegend clickable" style="cursor:pointer"><g class="legendMark"><rect x="747.304" y="74.1" width="41.672" height="16.2" fill="#fff" opacity="0"></rect><rect x="747.304" y="78.19999999999999" width="8" height="8" fill="#A2559C"></rect><text font-size="11.20" x="760.3" y="86.3"><tspan x="760.304" y="86.344">Africa</tspan></text></g><g class="legendMark"><rect x="747.304" y="90.3" width="34.839999999999996" height="16.2" fill="#fff" opacity="0"></rect><rect x="747.304" y="94.39999999999999" width="8" height="8" fill="#00847E"></rect><text font-size="11.20" x="760.3" y="102.5"><tspan x="760.304" y="102.544">Asia</tspan></text></g><g class="legendMark"><rect x="747.304" y="106.5" width="49.288" height="16.2" fill="#fff" opacity="0"></rect><rect x="747.304" y="110.6" width="8" height="8" fill="#4C6A9C"></rect><text font-size="11.20" x="760.3" y="118.7"><tspan x="760.304" y="118.744">Europe</tspan></text></g><g class="legendMark"><rect x="747.304" y="122.69999999999999" width="84.67999999999999" height="16.2" fill="#fff" opacity="0"></rect><rect x="747.304" y="126.79999999999998" width="8" height="8" fill="#E56E5A"></rect><text font-size="11.20" x="760.3" y="134.9"><tspan x="760.304" y="134.944">North America</tspan></text></g><g class="legendMark"><rect x="747.304" y="138.89999999999998" width="54.888" height="16.2" fill="#fff" opacity="0"></rect><rect x="747.304" y="142.99999999999997" width="8" height="8" fill="#9A5129"></rect><text font-size="11.20" x="760.3" y="151.1"><tspan x="760.304" y="151.14399999999998">Oceania</tspan></text></g><g class="legendMark"><rect x="747.304" y="155.1" width="86.696" height="16.2" fill="#fff" opacity="0"></rect><rect x="747.304" y="159.2" width="8" height="8" fill="#883039"></rect><text font-size="11.20" x="760.3" y="167.3"><tspan x="760.304" y="167.344">South America</tspan></text></g></g><line x1="747.304" y1="175.8" x2="829" y2="175.8" stroke="#ccc"></line><g><g><circle cx="790.6519999999999" cy="209.93892953201828" r="17.861070467981744" fill="none" stroke="#bbb" stroke-width="1.25" opacity="1"></circle><text x="790.6519999999999" y="192.07785906403655" dy=".47em" fill="#444" style="fill:#fff;stroke:#fff;stroke-linecap:round;stroke-linejoin:round;stroke-width:3.5;font-size:10.965267616995437px;font-weight:400;text-anchor:middle">1.4B</text><text x="790.6519999999999" y="192.07785906403655" dy=".47em" fill="#444" style="font-size:10.965267616995437px;font-weight:400;text-anchor:middle">1.4B</text></g><g><circle cx="790.6519999999999" cy="216.10718465536192" r="11.692815344638095" fill="none" stroke="#bbb" stroke-width="1.25" opacity="1"></circle><text x="790.6519999999999" y="204.41436931072383" dy=".47em" fill="#444" style="fill:#fff;stroke:#fff;stroke-linecap:round;stroke-linejoin:round;stroke-width:3.5;font-size:9.423203836159523px;font-weight:400;text-anchor:middle">600M</text><text x="790.6519999999999" y="204.41436931072383" dy=".47em" fill="#444" style="font-size:9.423203836159523px;font-weight:400;text-anchor:middle">600M</text></g><text font-size="10.00" x="790.7" y="239.5" fill="#777" text-anchor="middle"><tspan x="790.6519999999999" y="239.5">Dots sized by</tspan></text><text font-size="11.00" font-weight="700" x="790.7" y="252.4" fill="#222" text-anchor="middle"><tspan x="790.6519999999999" y="252.37">Population</tspan></text></g></g><g class="SourcesFooter" style="fill:#5b5b5b"><text x="16.0" y="565.9" style="font-size:11px;line-height:1.1"><tspan x="16" y="565.9"><tspan style="font-weight:700">Data source:</tspan> World Bank PIP; Alkire, Kanagaratnam and Suppa (2022)</tspan></text><text x="16.0" y="582.0" style="font-size:11px;line-height:1.1"><tspan x="16" y="582.0"><tspan style="font-weight:700">Note:</tspan> Poverty data is measured in international-$ at 2017 prices. Depending on the country and year, it relates to either disposable income or consumption per capita.</tspan></text><text font-size="11.00" x="653.4" y="565.9"><tspan x="653.38" y="565.92"><a target="_blank" href="https://ourworldindata.org/poverty">OurWorldInData.org/poverty</a> | <a target="_blank" style='fill: #5b5b5b;' href="http://creativecommons.org/licenses/by/4.0/deed.en_US">CC BY</a></tspan></text></g></svg>