<svg xmlns="http://www.w3.org/2000/svg" version="1.1" style="font-family:Lato, &#x27;Helvetica Neue&#x27;, Helvetica, Arial, &#x27;Liberation Sans&#x27;, sans-serif;font-size:16px;background-color:white;text-rendering:geometricPrecision;-webkit-font-smoothing:antialiased;overflow:visible" width="850" height="600" viewBox="0 0 850 600"><defs><style>@import url(http://localhost:3030/fonts.css)</style></defs><defs><pattern id="noDataPattern" patternUnits="userSpaceOnUse" width="4" height="4" patternTransform="rotate(-45 2 2)"><path d="M -1,2 l 6,0" stroke="#ccc" stroke-width="0.7"></path></pattern></defs><rect class="background-fill" fill="white" width="850" height="600"></rect><g class="HeaderView"><g transform="translate(768, 16) scale(0.9)"><svg className="owidLogo" xmlns="http://www.w3.org/2000/svg" width="73" height="40" viewBox="0 0 73 40" fill="none"><path fill="#002147" d="M0 0h72v40H0z"/><path fill="#CE261E" d="M0 37h72v3H0z"/><path fill="#fff" d="M16.96 11.977c0 .654-.105 1.254-.316 1.802a4.141 4.141 0 0 1-.883 1.412c-.381.394-.838.7-1.37.92a4.605 4.605 0 0 1-1.77.328c-.646 0-1.236-.11-1.772-.329a4.01 4.01 0 0 1-1.37-.919 4.27 4.27 0 0 1-.882-1.412 4.972 4.972 0 0 1-.317-1.802c0-.649.106-1.247.317-1.795a4.19 4.19 0 0 1 .882-1.412 3.969 3.969 0 0 1 1.37-.926 4.562 4.562 0 0 1 1.771-.334c.65 0 1.24.111 1.772.334.531.22.988.528 1.37.926.38.393.675.864.882 1.412.21.548.316 1.146.316 1.795Zm-1.327 0a4.3 4.3 0 0 0-.213-1.4 2.96 2.96 0 0 0-.608-1.053 2.592 2.592 0 0 0-.95-.663 3.194 3.194 0 0 0-1.242-.231 3.24 3.24 0 0 0-1.247.23c-.37.155-.686.376-.95.664-.264.288-.467.64-.609 1.053-.142.414-.213.881-.213 1.4 0 .524.071.993.213 1.406.142.41.345.76.609 1.047.264.289.58.51.95.664.373.15.789.225 1.247.225a3.27 3.27 0 0 0 1.242-.225 2.59 2.59 0 0 0 .95-.664c.263-.288.466-.637.608-1.046a4.32 4.32 0 0 0 .213-1.407Zm7.76-1.813v6.184h-.712c-.162 0-.268-.08-.316-.238l-.086-.62a4.181 4.181 0 0 1-.42.39c-.146.117-.302.218-.468.303a2.565 2.565 0 0 1-.53.19 2.38 2.38 0 0 1-.602.072 2.23 2.23 0 0 1-.901-.17 1.803 1.803 0 0 1-.646-.475 2.101 2.101 0 0 1-.395-.743 3.218 3.218 0 0 1-.134-.955v-3.938h1.193v3.938c0 .442.101.787.304 1.034.203.244.514.366.932.366.304 0 .588-.071.852-.213.264-.146.511-.345.742-.597v-4.528h1.187Zm2.777 1.186c.199-.405.438-.724.718-.955.28-.231.617-.347 1.01-.347.135 0 .26.016.378.049a.932.932 0 0 1 .317.133l-.08.895c-.028.11-.095.165-.2.165a1.6 1.6 0 0 1-.256-.03 1.744 1.744 0 0 0-.365-.037c-.19 0-.36.028-.505.085a1.15 1.15 0 0 0-.396.243 1.622 1.622 0 0 0-.304.396 3.81 3.81 0 0 0-.25.53v3.87H25.05v-6.184h.682c.13 0 .217.025.262.073.048.045.083.126.103.244l.073.87Zm17.67-3.743-2.727 8.74h-1.169l-2.13-6.482a3.055 3.055 0 0 1-.128-.468 6.471 6.471 0 0 1-.128.468l-2.155 6.483h-1.162l-2.727-8.741h1.083a.47.47 0 0 1 .286.085.37.37 0 0 1 .152.22l1.723 5.849c.032.114.06.237.085.371.029.134.057.274.085.42.029-.146.057-.286.086-.42.032-.134.069-.258.11-.371l1.971-5.85a.427.427 0 0 1 .153-.213.464.464 0 0 1 .286-.091h.371a.443.443 0 0 1 .438.304l1.966 5.85c.073.223.138.477.195.76.049-.28.102-.533.158-.76l1.73-5.85a.383.383 0 0 1 .151-.213.464.464 0 0 1 .286-.091h1.01Zm2.927 2.46c.454 0 .864.074 1.23.224.369.146.681.36.937.64.26.275.459.61.597 1.004.137.39.206.828.206 1.315 0 .486-.069.927-.206 1.32a2.79 2.79 0 0 1-.597 1.005 2.585 2.585 0 0 1-.938.639c-.365.146-.775.22-1.229.22a3.35 3.35 0 0 1-1.242-.22 2.657 2.657 0 0 1-.937-.64c-.26-.275-.46-.61-.603-1.004a3.976 3.976 0 0 1-.207-1.32c0-.487.07-.926.207-1.315.142-.394.343-.729.603-1.005.26-.28.572-.493.937-.639.37-.15.783-.225 1.242-.225Zm0 5.44c.584 0 1.02-.196 1.309-.59.288-.393.432-.947.432-1.661 0-.715-.144-1.268-.432-1.662-.288-.398-.725-.597-1.309-.597-.593 0-1.035.2-1.327.597-.288.394-.432.947-.432 1.662 0 .714.144 1.268.432 1.661.292.394.735.59 1.327.59Zm5.415-4.157c.2-.405.439-.724.719-.955.28-.231.616-.347 1.01-.347.134 0 .26.016.377.049a.934.934 0 0 1 .317.133l-.08.895c-.027.11-.094.165-.2.165-.057 0-.142-.01-.256-.03a1.744 1.744 0 0 0-.365-.037c-.19 0-.359.028-.505.085a1.15 1.15 0 0 0-.396.243 1.621 1.621 0 0 0-.304.396c-.09.154-.173.33-.25.53v3.87h-1.187v-6.184h.682c.13 0 .217.025.262.073.049.045.083.126.103.244l.073.87Zm4.556-3.987v8.985h-1.193V7.363h1.193Zm5.682 4.298c-.195-.256-.406-.434-.633-.536a1.805 1.805 0 0 0-.755-.152c-.543 0-.965.197-1.266.59-.296.39-.444.96-.444 1.71 0 .395.032.731.097 1.011.07.276.167.503.293.682.13.175.288.304.474.39.187.08.398.121.633.121.345 0 .644-.077.895-.23.252-.155.487-.372.706-.652V11.66Zm1.193-4.298v8.985h-.718c-.166 0-.27-.08-.31-.238l-.104-.712a3.31 3.31 0 0 1-.9.755c-.334.187-.719.28-1.157.28-.353 0-.674-.069-.962-.207a2.037 2.037 0 0 1-.73-.602 2.923 2.923 0 0 1-.47-.993 5.075 5.075 0 0 1-.163-1.357c0-.459.06-.885.182-1.278.122-.394.298-.735.53-1.023.231-.288.511-.513.84-.676.328-.166.7-.25 1.114-.25.373 0 .69.062.95.183.263.122.498.295.705.518V7.363h1.193Zm-44.668 15.8v6.185h-1.187v-6.184h1.187Zm.225-1.91c0 .109-.022.214-.067.316a.85.85 0 0 1-.444.438.846.846 0 0 1-.627 0 .96.96 0 0 1-.262-.177.958.958 0 0 1-.177-.261.844.844 0 0 1 0-.633.85.85 0 0 1 .177-.262.806.806 0 0 1 .262-.177.778.778 0 0 1 .627 0c.101.041.188.1.261.177a.801.801 0 0 1 .25.578Zm2.607 2.769c.134-.142.274-.272.42-.39a2.564 2.564 0 0 1 .992-.493c.191-.049.394-.073.609-.073.34 0 .64.057.895.17.26.114.477.274.651.481.175.203.306.449.396.737.089.288.134.607.134.956v3.938H24.68V25.41c0-.443-.102-.786-.305-1.03-.203-.247-.513-.37-.931-.37-.304 0-.59.073-.858.219-.264.142-.51.337-.737.584v4.535h-1.187v-6.184h.712c.167 0 .27.079.31.237l.092.62Zm16.648.955c0 .654-.105 1.248-.316 1.784a3.976 3.976 0 0 1-.883 1.382 3.995 3.995 0 0 1-1.37.888 4.763 4.763 0 0 1-1.771.317h-3.287v-8.741h3.287c.65 0 1.24.105 1.771.317.532.21.988.509 1.37.894.381.382.675.842.883 1.382a4.81 4.81 0 0 1 .316 1.777Zm-1.327 0c0-.519-.071-.984-.213-1.393a2.896 2.896 0 0 0-.609-1.047 2.53 2.53 0 0 0-.95-.658 3.271 3.271 0 0 0-1.241-.225h-1.984V28.3h1.984c.459 0 .872-.075 1.242-.225.373-.15.69-.368.95-.652.263-.288.466-.637.608-1.047.142-.41.213-.876.213-1.4Zm5.887 1.626a8.699 8.699 0 0 0-1.23.115c-.337.057-.61.134-.822.232-.21.097-.363.213-.456.347a.733.733 0 0 0-.14.438c0 .154.024.288.073.402.053.11.122.2.207.273.09.07.193.12.31.153.118.032.246.048.384.048a2.108 2.108 0 0 0 .931-.207c.134-.069.262-.152.384-.25.121-.097.241-.208.359-.334v-1.217Zm-3.482-2.575a3.55 3.55 0 0 1 1.12-.737c.406-.162.85-.243 1.333-.243.353 0 .665.059.937.176.272.114.502.274.688.481.187.207.327.455.42.743.098.288.146.607.146.956v3.944h-.53a.529.529 0 0 1-.267-.055.416.416 0 0 1-.146-.22l-.128-.54a5.553 5.553 0 0 1-.469.389c-.154.11-.316.205-.487.286a2.513 2.513 0 0 1-.535.176c-.191.04-.402.061-.633.061-.244 0-.473-.032-.688-.097a1.484 1.484 0 0 1-.931-.828 1.816 1.816 0 0 1-.134-.724c0-.244.065-.477.194-.7.134-.228.35-.43.646-.609.3-.179.69-.325 1.168-.438.483-.114 1.076-.179 1.778-.195v-.45c0-.467-.1-.816-.299-1.047-.198-.232-.49-.347-.876-.347-.26 0-.479.032-.657.097a2.511 2.511 0 0 0-.457.22c-.126.076-.237.147-.335.212a.504.504 0 0 1-.292.098.35.35 0 0 1-.213-.067.579.579 0 0 1-.14-.159l-.213-.383Zm8.086 5.417c-.5 0-.885-.14-1.157-.42-.268-.28-.401-.68-.401-1.199v-3.7h-.719a.267.267 0 0 1-.176-.062c-.045-.044-.067-.11-.067-.194v-.481l1.004-.14.268-1.845a.28.28 0 0 1 .091-.158c.049-.04.11-.06.183-.06h.602v2.075h1.754v.864h-1.754v3.622c0 .243.06.426.177.548a.639.639 0 0 0 .462.176c.11 0 .203-.014.28-.042.082-.029.15-.06.207-.092.057-.036.106-.069.147-.097a.198.198 0 0 1 .11-.043c.04 0 .07.01.09.03a.265.265 0 0 1 .074.086l.352.572a2.047 2.047 0 0 1-.693.414 2.421 2.421 0 0 1-.834.146Zm5.798-2.842a8.7 8.7 0 0 0-1.23.115c-.336.057-.61.134-.821.232-.211.097-.363.213-.457.347a.733.733 0 0 0-.14.438c0 .154.025.288.073.402.053.11.122.2.207.273.09.07.193.12.31.153.118.032.246.048.384.048a2.108 2.108 0 0 0 .932-.207c.133-.069.261-.152.383-.25.122-.097.242-.208.36-.334v-1.217Zm-3.481-2.575a3.547 3.547 0 0 1 1.12-.737c.405-.162.85-.243 1.332-.243.354 0 .666.059.938.176.272.114.501.274.688.481.186.207.326.455.42.743.097.288.146.607.146.956v3.944h-.53a.529.529 0 0 1-.268-.055.417.417 0 0 1-.146-.22l-.128-.54a5.537 5.537 0 0 1-.468.389c-.154.11-.317.205-.487.286a2.516 2.516 0 0 1-.536.176c-.19.04-.401.061-.633.061-.243 0-.473-.032-.688-.097a1.487 1.487 0 0 1-.931-.828 1.818 1.818 0 0 1-.134-.724c0-.244.065-.477.195-.7.134-.228.349-.43.645-.609.3-.179.69-.325 1.169-.438.483-.114 1.075-.179 1.777-.195v-.45c0-.467-.1-.816-.298-1.047-.199-.232-.491-.347-.877-.347-.26 0-.478.032-.657.097a2.515 2.515 0 0 0-.456.22c-.126.076-.238.147-.335.212a.504.504 0 0 1-.292.098.35.35 0 0 1-.214-.067.579.579 0 0 1-.14-.159l-.212-.383Z"/></svg></g><a href="http://localhost:3030/grapher/value-added-vs-share-of-emissions-usa" style="font-family:&#x27;Playfair Display&#x27;, Georgia, &#x27;Times New Roman&#x27;, &#x27;Liberation Serif&#x27;, serif" target="_blank" rel="noopener"><text font-size="24.00" font-weight="400" x="16.0" y="39.3" fill="#4E4E4E"><tspan x="16" y="39.28">Contribution to value added vs. share of CO₂ emissions in USA,</tspan><tspan x="16" y="68.08">2009</tspan></text></a><text x="16.0" y="91.8" style="font-size:14px;line-height:1.28571" fill="#4E4E4E"><tspan x="16" y="91.8">Contribution of individual sectors to net economic output versus its share of total national carbon dioxide (CO₂) emissions in 2009.</tspan><tspan x="16" y="109.8">Sectors which lie above the line contribute more to the value added than the emissions in the United States. Direct emissions of</tspan><tspan x="16" y="127.8">households are not included.</tspan></text></g><g class="ScatterPlot"><g class="DualAxisView"><g class="HorizontalAxis"><text font-size="11.20" x="313.6" y="556.1"><tspan x="313.564" y="556.144">Share of CO₂ emissions</tspan></text><text x="71.144" y="536.4" fill="#666" text-anchor="start" font-size="14.4">0%</text><text x="203.4" y="536.4" fill="#666" text-anchor="middle" font-size="14.4">10%</text><text x="335.6" y="536.4" fill="#666" text-anchor="middle" font-size="14.4">20%</text><text x="467.8" y="536.4" fill="#666" text-anchor="middle" font-size="14.4">30%</text><text x="600" y="536.4" fill="#666" text-anchor="middle" font-size="14.4">40%</text><text x="732.2" y="536.4" fill="#666" text-anchor="end" font-size="14.4">50%</text></g><g class="VerticalAxis"><text font-size="11.20" x="-422.4" y="25.7" transform="rotate(-90)"><tspan x="-422.42391000000003" y="25.744">Contribution to value added</tspan></text><text x="66.14" y="517" dy=".32em" text-anchor="end" fill="#666" font-size="14.4">0%</text><text x="66.14" y="425.1" dy=".32em" text-anchor="end" fill="#666" font-size="14.4">5%</text><text x="66.14" y="333.3" dy=".32em" text-anchor="end" fill="#666" font-size="14.4">10%</text><text x="66.14" y="241.4" dy=".32em" text-anchor="end" fill="#666" font-size="14.4">15%</text><text x="66.14" y="149.6" dy=".32em" text-anchor="end" fill="#666" font-size="14.4">20%</text></g><g class="AxisGridLines horizontalLines"><line x1="71.14" y1="517" x2="732.20" y2="517" stroke="#999"></line><line x1="71.14" y1="425.1" x2="732.20" y2="425.1" stroke="#ddd" stroke-dasharray="3,2"></line><line x1="71.14" y1="333.3" x2="732.20" y2="333.3" stroke="#ddd" stroke-dasharray="3,2"></line><line x1="71.14" y1="241.4" x2="732.20" y2="241.4" stroke="#ddd" stroke-dasharray="3,2"></line><line x1="71.14" y1="149.6" x2="732.20" y2="149.6" stroke="#ddd" stroke-dasharray="3,2"></line></g><g class="AxisGridLines verticalLines"><line x1="71.1" y1="517.00" x2="71.1" y2="149.60" stroke="#999"></line><line x1="203.4" y1="517.00" x2="203.4" y2="149.60" stroke="#ddd" stroke-dasharray="3,2"></line><line x1="335.6" y1="517.00" x2="335.6" y2="149.60" stroke="#ddd" stroke-dasharray="3,2"></line><line x1="467.8" y1="517.00" x2="467.8" y2="149.60" stroke="#ddd" stroke-dasharray="3,2"></line><line x1="600" y1="517.00" x2="600" y2="149.60" stroke="#ddd" stroke-dasharray="3,2"></line><line x1="732.2" y1="517.00" x2="732.2" y2="149.60" stroke="#ddd" stroke-dasharray="3,2"></line></g></g><g class="comparisonLine"><defs><clipPath id="axisBounds-1"><rect x="71.144" y="149.59982" width="661.056" height="367.40018"></rect></clipPath></defs><path style="opacity:0.9;fill:none;stroke:#ccc;stroke-dasharray:2 2" id="path-1" d="M71.1,517L72.5,515.2L73.8,513.3L75.1,511.5L76.4,509.7L77.8,507.8L79.1,506L80.4,504.1L81.7,502.3L83,500.5L84.4,498.6L85.7,496.8L87,495L88.3,493.1L89.7,491.3L91,489.4L92.3,487.6L93.6,485.8L94.9,483.9L96.3,482.1L97.6,480.3L98.9,478.4L100.2,476.6L101.6,474.7L102.9,472.9L104.2,471.1L105.5,469.2L106.8,467.4L108.2,465.6L109.5,463.7L110.8,461.9L112.1,460.1L113.5,458.2L114.8,456.4L116.1,454.5L117.4,452.7L118.7,450.9L120.1,449L121.4,447.2L122.7,445.4L124,443.5L125.4,441.7L126.7,439.8L128,438L129.3,436.2L130.6,434.3L132,432.5L133.3,430.7L134.6,428.8L135.9,427L137.2,425.1L138.6,423.3L139.9,421.5L141.2,419.6L142.5,417.8L143.9,416L145.2,414.1L146.5,412.3L147.8,410.5L149.1,408.6L150.5,406.8L151.8,404.9L153.1,403.1L154.4,401.3L155.8,399.4L157.1,397.6L158.4,395.8L159.7,393.9L161,392.1L162.4,390.2L163.7,388.4L165,386.6L166.3,384.7L167.7,382.9L169,381.1L170.3,379.2L171.6,377.4L172.9,375.6L174.3,373.7L175.6,371.9L176.9,370L178.2,368.2L179.6,366.4L180.9,364.5L182.2,362.7L183.5,360.9L184.8,359L186.2,357.2L187.5,355.3L188.8,353.5L190.1,351.7L191.5,349.8L192.8,348L194.1,346.2L195.4,344.3L196.7,342.5L198.1,340.6L199.4,338.8L200.7,337L202,335.1L203.4,333.3L204.7,331.5L206,329.6L207.3,327.8L208.6,326L210,324.1L211.3,322.3L212.6,320.4L213.9,318.6L215.3,316.8L216.6,314.9L217.9,313.1L219.2,311.3L220.5,309.4L221.9,307.6L223.2,305.7L224.5,303.9L225.8,302.1L227.2,300.2L228.5,298.4L229.8,296.6L231.1,294.7L232.4,292.9L233.8,291L235.1,289.2L236.4,287.4L237.7,285.5L239.1,283.7L240.4,281.9L241.7,280L243,278.2L244.3,276.4L245.7,274.5L247,272.7L248.3,270.8L249.6,269L251,267.2L252.3,265.3L253.6,263.5L254.9,261.7L256.2,259.8L257.6,258L258.9,256.1L260.2,254.3L261.5,252.5L262.9,250.6L264.2,248.8L265.5,247L266.8,245.1L268.1,243.3L269.5,241.4L270.8,239.6L272.1,237.8L273.4,235.9L274.7,234.1L276.1,232.3L277.4,230.4L278.7,228.6L280,226.8L281.4,224.9L282.7,223.1L284,221.2L285.3,219.4L286.6,217.6L288,215.7L289.3,213.9L290.6,212.1L291.9,210.2L293.3,208.4L294.6,206.5L295.9,204.7L297.2,202.9L298.5,201L299.9,199.2L301.2,197.4L302.5,195.5L303.8,193.7L305.2,191.9L306.5,190L307.8,188.2L309.1,186.3L310.4,184.5L311.8,182.7L313.1,180.8L314.4,179L315.7,177.2L317.1,175.3L318.4,173.5L319.7,171.6L321,169.8L322.3,168L323.7,166.1L325,164.3L326.3,162.5L327.6,160.6L329,158.8L330.3,156.9L331.6,155.1L332.9,153.3L334.2,151.4L335.6,149.6" clip-path="url(#axisBounds-1)"></path></g><g class="PointsWithLabels clickable" clip-path="url(#scatterBounds-2)"><rect x="71.144" y="149.59982" width="661.056" height="367.40018" fill="rgba(255,255,255,0)"></rect><defs><clipPath id="scatterBounds-2"><rect x="61.144000000000005" y="139.59982" width="681.056" height="387.40018"></rect></clipPath></defs><g class="key-Wholesale-__0026-Commission-Trade"><circle cx="80.00" cy="414.00" r="3.00" fill="#932834" opacity="0.8" stroke="#333" stroke-width="0.5" style="transition:fill 250ms"></circle></g><g class="key-Wood-__0026-Products"><circle cx="75.00" cy="515.00" r="3.00" fill="#932834" opacity="0.8" stroke="#333" stroke-width="0.5" style="transition:fill 250ms"></circle></g><g class="key-Pulp__002c-Paper__002c-__0026-Printing"><circle cx="91.00" cy="495.00" r="3.00" fill="#932834" opacity="0.8" stroke="#333" stroke-width="0.5" style="transition:fill 250ms"></circle></g><g class="key-Coke__002c-Refined-Petroleum-__0026-Nuclear-Fuel"><circle cx="130.00" cy="500.00" r="3.00" fill="#932834" opacity="0.8" stroke="#666" stroke-width="0.5" style="transition:fill 250ms"></circle></g><g class="key-Chemicals-__0026-Products"><circle cx="113.00" cy="491.00" r="3.00" fill="#932834" opacity="0.8" stroke="#666" stroke-width="0.5" style="transition:fill 250ms"></circle></g><g class="key-Rubber-__0026-Plastics"><circle cx="72.00" cy="509.00" r="3.00" fill="#932834" opacity="0.8" stroke="#666" stroke-width="0.5" style="transition:fill 250ms"></circle></g><g class="key-Basic-__0026-Fabricated-Metals"><circle cx="102.00" cy="495.00" r="3.00" fill="#932834" opacity="0.8" stroke="#666" stroke-width="0.5" style="transition:fill 250ms"></circle></g><g class="key-Electricity__002c-Gas-__0026-Water"><circle cx="712.00" cy="482.00" r="3.00" fill="#932834" opacity="0.8" stroke="#333" stroke-width="0.5" style="transition:fill 250ms"></circle></g><g class="key-Motor-vehicles-__0028manufacturing__002c-repair-__0026-fuel__0029"><circle cx="72.00" cy="500.00" r="3.00" fill="#932834" opacity="0.8" stroke="#666" stroke-width="0.5" style="transition:fill 250ms"></circle></g><g class="key-Leather-__0026-Footwear"><circle cx="71.00" cy="517.00" r="3.00" fill="#932834" opacity="0.8" stroke="#666" stroke-width="0.5" style="transition:fill 250ms"></circle></g><g class="key-Retail-Trade"><circle cx="96.00" cy="406.00" r="3.00" fill="#932834" opacity="0.8" stroke="#666" stroke-width="0.5" style="transition:fill 250ms"></circle></g><g class="key-Hotels-__0026-Restaurants"><circle cx="91.00" cy="463.00" r="3.00" fill="#932834" opacity="0.8" stroke="#333" stroke-width="0.5" style="transition:fill 250ms"></circle></g><g class="key-Supporting-__0026-Auxiliary-Transport"><circle cx="88.00" cy="498.00" r="3.00" fill="#932834" opacity="0.8" stroke="#666" stroke-width="0.5" style="transition:fill 250ms"></circle></g><g class="key-Post-__0026-Telecommunications"><circle cx="80.00" cy="469.00" r="3.00" fill="#932834" opacity="0.8" stroke="#666" stroke-width="0.5" style="transition:fill 250ms"></circle></g><g class="key-Public-Admin-__0026-Defence"><circle cx="151.00" cy="285.00" r="3.00" fill="#932834" opacity="0.8" stroke="#333" stroke-width="0.5" style="transition:fill 250ms"></circle></g><g class="key-Other-Community__002c-Social-__0026-Personal-Services"><circle cx="87.00" cy="450.00" r="3.00" fill="#932834" opacity="0.8" stroke="#666" stroke-width="0.5" style="transition:fill 250ms"></circle></g><g class="key-Rail-and-freight-transport"><circle cx="132.00" cy="495.00" r="3.00" fill="#932834" opacity="0.8" stroke="#666" stroke-width="0.5" style="transition:fill 250ms"></circle></g><g class="key-IT__002c-Research-__0026-Development"><circle cx="104.00" cy="270.00" r="3.00" fill="#932834" opacity="0.8" stroke="#666" stroke-width="0.5" style="transition:fill 250ms"></circle></g><g class="key-Financial-Intermediation"><circle cx="80.00" cy="349.00" r="3.00" fill="#932834" opacity="0.8" stroke="#333" stroke-width="0.5" style="transition:fill 250ms"></circle></g><g class="key-Education"><circle cx="76.00" cy="498.00" r="3.00" fill="#932834" opacity="0.8" stroke="#666" stroke-width="0.5" style="transition:fill 250ms"></circle></g><g class="key-Other-Non__002dMetallic-Mineral"><circle cx="105.00" cy="511.00" r="3.00" fill="#932834" opacity="0.8" stroke="#666" stroke-width="0.5" style="transition:fill 250ms"></circle></g><g class="key-Electrical-__0026-Optical-Equipment"><circle cx="75.00" cy="480.00" r="3.00" fill="#932834" opacity="0.8" stroke="#666" stroke-width="0.5" style="transition:fill 250ms"></circle></g><g class="key-Transport-Equipment"><circle cx="77.00" cy="495.00" r="3.00" fill="#932834" opacity="0.8" stroke="#666" stroke-width="0.5" style="transition:fill 250ms"></circle></g><g class="key-Manufacturing__002c-Nec__002c-Recycling"><circle cx="72.00" cy="509.00" r="3.00" fill="#932834" opacity="0.8" stroke="#666" stroke-width="0.5" style="transition:fill 250ms"></circle></g><g class="key-Construction"><circle cx="84.00" cy="441.00" r="3.00" fill="#932834" opacity="0.8" stroke="#333" stroke-width="0.5" style="transition:fill 250ms"></circle></g><g class="key-Water-Transport"><circle cx="88.00" cy="515.00" r="3.00" fill="#932834" opacity="0.8" stroke="#666" stroke-width="0.5" style="transition:fill 250ms"></circle></g><g class="key-Air-Transport"><circle cx="120.00" cy="509.00" r="3.00" fill="#932834" opacity="0.8" stroke="#666" stroke-width="0.5" style="transition:fill 250ms"></circle></g><g class="key-Machinery"><circle cx="76.00" cy="502.00" r="3.00" fill="#932834" opacity="0.8" stroke="#666" stroke-width="0.5" style="transition:fill 250ms"></circle></g><g class="key-Real-Estate-Activities"><circle cx="73.00" cy="298.00" r="3.00" fill="#932834" opacity="0.8" stroke="#666" stroke-width="0.5" style="transition:fill 250ms"></circle></g><g class="key-Health-__0026-Social-Work"><circle cx="98.00" cy="381.00" r="3.00" fill="#932834" opacity="0.8" stroke="#333" stroke-width="0.5" style="transition:fill 250ms"></circle></g><g class="key-Private-Households"><circle cx="71.00" cy="515.00" r="3.00" fill="#932834" opacity="0.8" stroke="#666" stroke-width="0.5" style="transition:fill 250ms"></circle></g><g class="key-Agriculture__002c-Forestry-__0026-Fishing"><circle cx="87.00" cy="498.00" r="3.00" fill="#932834" opacity="0.8" stroke="#666" stroke-width="0.5" style="transition:fill 250ms"></circle></g><g class="key-Mining-__0026-Quarrying"><circle cx="106.00" cy="485.00" r="3.00" fill="#932834" opacity="0.8" stroke="#666" stroke-width="0.5" style="transition:fill 250ms"></circle></g><g class="key-Food__002c-Beverages-__0026-Tobacco"><circle cx="91.00" cy="489.00" r="3.00" fill="#932834" opacity="0.8" stroke="#666" stroke-width="0.5" style="transition:fill 250ms"></circle></g><g class="key-Textiles-__0026-Products"><circle cx="73.00" cy="513.00" r="3.00" fill="#932834" opacity="0.8" stroke="#666" stroke-width="0.5" style="transition:fill 250ms"></circle></g><g class="backgroundLabels" fill="#333"><text x="80.00" y="410.00" font-size="11.55" font-weight="400" fill="#932834" style="fill:#fff;stroke:#fff;stroke-linecap:round;stroke-linejoin:round;stroke-width:.25em">Wholesale &amp; Commission Trade</text><text x="80.00" y="410.00" font-size="11.55" font-weight="400" fill="#932834" style="pointer-events:none">Wholesale &amp; Commission Trade</text><text x="75.00" y="511.00" font-size="11.55" font-weight="400" fill="#932834" style="fill:#fff;stroke:#fff;stroke-linecap:round;stroke-linejoin:round;stroke-width:.25em">Wood &amp; Products</text><text x="75.00" y="511.00" font-size="11.55" font-weight="400" fill="#932834" style="pointer-events:none">Wood &amp; Products</text><text x="91.00" y="491.00" font-size="11.55" font-weight="400" fill="#932834" style="fill:#fff;stroke:#fff;stroke-linecap:round;stroke-linejoin:round;stroke-width:.25em">Pulp, Paper, &amp; Printing</text><text x="91.00" y="491.00" font-size="11.55" font-weight="400" fill="#932834" style="pointer-events:none">Pulp, Paper, &amp; Printing</text><text x="589.80" y="478.00" font-size="11.55" font-weight="400" fill="#932834" style="fill:#fff;stroke:#fff;stroke-linecap:round;stroke-linejoin:round;stroke-width:.25em">Electricity, Gas &amp; Water</text><text x="589.80" y="478.00" font-size="11.55" font-weight="400" fill="#932834" style="pointer-events:none">Electricity, Gas &amp; Water</text><text x="91.00" y="459.00" font-size="11.55" font-weight="400" fill="#932834" style="fill:#fff;stroke:#fff;stroke-linecap:round;stroke-linejoin:round;stroke-width:.25em">Hotels &amp; Restaurants</text><text x="91.00" y="459.00" font-size="11.55" font-weight="400" fill="#932834" style="pointer-events:none">Hotels &amp; Restaurants</text><text x="151.00" y="281.00" font-size="11.55" font-weight="400" fill="#932834" style="fill:#fff;stroke:#fff;stroke-linecap:round;stroke-linejoin:round;stroke-width:.25em">Public Admin &amp; Defence</text><text x="151.00" y="281.00" font-size="11.55" font-weight="400" fill="#932834" style="pointer-events:none">Public Admin &amp; Defence</text><text x="80.00" y="345.00" font-size="11.55" font-weight="400" fill="#932834" style="fill:#fff;stroke:#fff;stroke-linecap:round;stroke-linejoin:round;stroke-width:.25em">Financial Intermediation</text><text x="80.00" y="345.00" font-size="11.55" font-weight="400" fill="#932834" style="pointer-events:none">Financial Intermediation</text><text x="84.00" y="437.00" font-size="11.55" font-weight="400" fill="#932834" style="fill:#fff;stroke:#fff;stroke-linecap:round;stroke-linejoin:round;stroke-width:.25em">Construction</text><text x="84.00" y="437.00" font-size="11.55" font-weight="400" fill="#932834" style="pointer-events:none">Construction</text><text x="98.00" y="377.00" font-size="11.55" font-weight="400" fill="#932834" style="fill:#fff;stroke:#fff;stroke-linecap:round;stroke-linejoin:round;stroke-width:.25em">Health &amp; Social Work</text><text x="98.00" y="377.00" font-size="11.55" font-weight="400" fill="#932834" style="pointer-events:none">Health &amp; Social Work</text></g></g><g class="ScatterColorLegend clickable" style="cursor:pointer"></g></g><g class="SourcesFooter" style="fill:#5b5b5b"><text x="16.0" y="581.2" style="font-size:12px;line-height:1.2"><tspan x="16" y="581.2"><tspan style="font-weight:700">Data source:</tspan> (WIOD) World Input-Output Dataset</tspan></text><text font-size="12.00" x="492.7" y="581.2"><tspan x="492.72" y="581.24"><a target="_blank" href="https://ourworldindata.org/shrink-emissions-not-the-economy">OurWorldInData.org/shrink-emissions-not-the-economy</a> | <a target="_blank" style='fill: #5b5b5b;' href="http://creativecommons.org/licenses/by/4.0/deed.en_US">CC BY</a></tspan></text></g></svg>